<svg width="100" height="100" viewBox="0 0 100 100" fill="none" xmlns="http://www.w3.org/2000/svg">
<g opacity="0.9">
<rect width="100" height="100" fill="white"/>
<path d="M17.8432 85.5214C23.8317 85.5214 28.6864 80.7808 28.6864 74.9331C28.6864 69.0853 23.8317 64.3447 17.8432 64.3447C11.8547 64.3447 7 69.0853 7 74.9331C7 80.7808 11.8547 85.5214 17.8432 85.5214Z" fill="#1D1D1B"/>
<path d="M50.0349 85.3715C46.2475 85.3715 34.4878 84.0274 34.4878 65.8816V36.4831C34.4878 32.1567 34.6525 26.5561 28.9513 26.5561C23.6446 26.5561 23.6881 32.624 23.6881 36.4831V60.0383H11.8569V36.4831C11.8569 18.1371 22.2123 15 28.9544 15C36.091 15 46.3252 18.1371 46.3252 36.4831V65.8816C46.3252 68.6061 46.0114 73.8821 50.038 73.8153C53.6638 73.7577 53.4277 68.6061 53.4277 65.8816V36.4831C53.4277 19.0715 63.8483 15 70.9445 15C78.0408 15 88.1725 19.0715 88.1725 36.4831L88.2501 84.4613L76.4158 84.4795L76.3382 36.1221C76.3382 31.6895 76.2916 26.5561 70.9476 26.5561C65.6037 26.5561 65.4018 31.6895 65.4018 36.1221V65.8816C65.4018 84.4947 54.3628 85.3715 50.038 85.3715H50.0349Z" fill="#1D1D1B"/>
</g>
</svg>
