<svg width="1271" height="1820" viewBox="0 0 1271 1820" fill="none" xmlns="http://www.w3.org/2000/svg">
<g clip-path="url(#clip0_1727_4209)">
<path d="M1063 11.4364C1075.99 22.256 1083.68 38.4246 1086 54.9989C1086 56.424 1085.96 57.8495 1085.88 59.2723C1085.64 63.5532 1085.7 66.8638 1087 70.9989C1091.35 74.5951 1096.16 76.5082 1101.3 78.7333C1106.36 81.1043 1111.03 84.0922 1115.75 87.0614C1116.76 87.6965 1117.78 88.3316 1118.82 88.986C1129.36 95.6995 1139.24 103.213 1149 110.999C1149.6 111.471 1150.19 111.943 1150.81 112.429C1156.53 116.968 1162.03 121.734 1167.42 126.663C1169.51 128.559 1171.64 130.411 1173.77 132.257C1178.16 136.091 1182.32 140.127 1186.44 144.249C1187.18 144.996 1187.93 145.743 1188.7 146.513C1193.43 151.295 1197.85 156.14 1201.99 161.444C1203.35 163.166 1204.75 164.848 1206.2 166.491C1240.26 205.281 1262.71 256.954 1269 307.999C1269.16 309.198 1269.16 309.198 1269.31 310.421C1279.26 390.402 1253.26 473.453 1211 540.999C1210.4 541.957 1209.81 542.915 1209.19 543.902C1201.6 556.037 1193.9 568.026 1185.21 579.41C1184.01 580.99 1182.83 582.586 1181.65 584.182C1176.63 590.96 1171.42 597.536 1166 603.999C1165.35 604.775 1165.35 604.775 1164.69 605.567C1158.46 613.029 1152 620.262 1145.38 627.374C1144.68 628.13 1143.98 628.886 1143.26 629.665C1142.6 630.361 1141.95 631.056 1141.27 631.772C1140.69 632.395 1140.11 633.019 1139.51 633.661C1138 634.999 1138 634.999 1136 634.999C1136 635.659 1136 636.319 1136 636.999C1135.34 636.999 1134.68 636.999 1134 636.999C1134 637.659 1134 638.319 1134 638.999C1132.6 640.374 1132.6 640.374 1130.63 641.999C1127.36 644.759 1124.39 647.649 1121.44 650.749C1117.25 654.996 1112.8 658.603 1108 662.124C1107.34 662.61 1106.68 663.095 1106 663.596C1101.27 666.999 1101.27 666.999 1099 666.999C1099.27 667.975 1099.27 667.975 1099.55 668.971C1102.05 678.406 1103.6 687.924 1105.06 697.561C1105.26 698.849 1105.26 698.849 1105.46 700.162C1107.59 714.058 1109.03 727.849 1109.81 741.89C1110.07 746.143 1110.43 750.386 1110.79 754.631C1117.78 836.871 1112.7 924.685 1085 1003C1084.38 1004.82 1083.76 1006.63 1083.15 1008.45C1063.84 1064.28 1031.99 1115.92 994.429 1161.27C992.396 1163.73 990.388 1166.21 988.376 1168.69C979.858 1179.08 971.092 1189.27 962.324 1199.46C961.133 1200.85 959.946 1202.23 958.759 1203.62C957.827 1204.71 957.827 1204.71 956.876 1205.81C956.358 1206.42 955.84 1207.02 955.306 1207.64C954.001 1209 954.001 1209 952.001 1210C952.001 1210.66 952.001 1211.32 952.001 1212C952.785 1212.62 953.568 1213.24 954.376 1213.87C957.585 1216.47 958.735 1218.33 959.385 1222.4C959.655 1232.1 956.783 1240.35 953.626 1249.37C953.075 1250.98 952.525 1252.59 951.974 1254.2C941.307 1285.02 925.384 1312.57 905.001 1338C904.24 1338.95 903.48 1339.91 902.696 1340.89C897.668 1347.12 892.397 1353.09 887.001 1359C885.479 1360.69 883.958 1362.37 882.438 1364.06C881.696 1364.88 880.953 1365.71 880.188 1366.55C878.759 1368.15 877.342 1369.76 875.938 1371.38C872.215 1375.67 868.405 1379.52 864.067 1383.19C861.773 1385.2 859.642 1387.32 857.501 1389.5C853.5 1393.55 849.338 1397.32 845.001 1401C844.466 1401.47 843.931 1401.95 843.38 1402.44C835.799 1409.05 828.17 1410.4 818.349 1410.28C814.78 1409.85 812.769 1408.23 810.001 1406C803.905 1401.88 797.419 1398.46 790.938 1395C781.532 1389.94 772.209 1384.76 762.926 1379.48C756.004 1375.55 749.041 1371.71 742.001 1368C714.183 1434.28 704.469 1510.46 699.313 1581.62C699.253 1582.46 699.192 1583.29 699.129 1584.15C697.22 1610.64 696.86 1637.08 696.932 1663.62C696.943 1667.86 696.947 1672.09 696.952 1676.32C696.963 1684.55 696.98 1692.77 697.001 1701C697.794 1700.99 698.587 1700.99 699.404 1700.98C722.657 1700.89 748.948 1703.38 770.001 1714C771.086 1714.54 772.172 1715.07 773.29 1715.62C780.124 1719.14 786.146 1723.03 792.001 1728C793.09 1728.84 793.09 1728.84 794.2 1729.69C805.15 1738.54 812.797 1751.07 815.001 1765C816.343 1779.7 812.565 1790.35 803.743 1801.98C800.901 1805.31 797.646 1807.72 794.001 1810.12C793.023 1810.77 793.023 1810.77 792.025 1811.44C786.04 1815.25 779.934 1817.46 773.001 1819C772.239 1819.19 771.477 1819.38 770.692 1819.57C746.329 1823.43 724.047 1814.15 703.001 1803C702.325 1802.65 701.649 1802.3 700.953 1801.94C687.359 1794.89 676.624 1786.03 666.001 1775C664.64 1773.7 664.64 1773.7 663.251 1772.37C655.03 1763.7 653.283 1752.58 650.569 1741.31C649.983 1738.92 649.363 1736.55 648.739 1734.17C645.231 1720.55 643.383 1706.98 642.001 1693C641.852 1691.53 641.852 1691.53 641.701 1690.04C641.064 1683.7 640.467 1677.36 640.001 1671C639.867 1669.28 639.867 1669.28 639.731 1667.53C638.596 1651.4 638.801 1635.22 638.813 1619.06C638.814 1618.28 638.814 1617.5 638.814 1616.69C638.824 1593.74 638.934 1570.88 641.001 1548C641.132 1546.49 641.262 1544.98 641.392 1543.47C647.572 1472.57 663.328 1404.34 686.001 1337C684.956 1336.44 684.956 1336.44 683.891 1335.88C669.813 1328.38 655.783 1320.8 641.834 1313.07C632.336 1307.8 622.781 1302.65 613.188 1297.56C605.019 1293.23 596.868 1288.87 588.834 1284.29C583.085 1281.02 577.262 1277.89 571.438 1274.75C562.444 1269.9 553.528 1264.93 544.647 1259.87C536.814 1255.43 528.904 1251.14 520.973 1246.87C514.182 1243.21 507.454 1239.45 500.751 1235.62C492.241 1230.77 483.647 1226.1 475.001 1221.5C465.525 1216.46 456.125 1211.3 446.798 1205.99C439.03 1201.56 431.21 1197.24 423.376 1192.94C413.999 1187.78 404.666 1182.56 395.392 1177.22C389.696 1173.95 383.957 1170.77 378.188 1167.62C369.668 1162.98 361.291 1158.11 352.924 1153.19C345.881 1149.06 338.77 1145.09 331.599 1141.19C323.801 1136.93 316.137 1132.46 308.483 1127.94C306.596 1126.83 304.704 1125.73 302.809 1124.63C300.892 1123.52 298.985 1122.39 297.087 1121.24C291.802 1118.15 288.265 1116.12 282.001 1117.25C281.35 1117.36 280.699 1117.47 280.028 1117.59C277.674 1118.01 275.341 1118.5 273.001 1119C272.031 1119.19 271.06 1119.38 270.061 1119.58C227.076 1128.1 158.733 1145.84 131.188 1182.87C126.166 1190.55 123.817 1197.97 122.251 1206.94C122.123 1207.66 121.995 1208.39 121.863 1209.14C113.379 1262.96 145.378 1328.54 173.892 1372.46C181.878 1384.81 186.822 1397.97 185.001 1413C182.728 1422.58 176.568 1430.83 168.501 1436.37C167.015 1437.27 165.515 1438.15 164.001 1439C163.389 1439.36 162.776 1439.73 162.146 1440.11C153.279 1445.02 143.278 1447.07 133.294 1448.1C132.474 1448.18 131.654 1448.27 130.809 1448.35C121.42 1449.25 112.051 1449.35 102.626 1449.31C101.731 1449.31 100.836 1449.31 99.9136 1449.3C68.7867 1449.18 43.8867 1443.82 19.001 1424C18.3332 1423.51 17.6655 1423.02 16.9775 1422.51C6.46393 1414.43 1.82406 1402.71 0.000978895 1390C-0.541181 1378.25 3.18319 1368.18 10.8252 1359.34C11.5432 1358.57 12.2612 1357.79 13.001 1357C13.6468 1356.3 14.2926 1355.6 14.958 1354.88C26.1882 1343.86 40.8725 1339.52 56.001 1337C57.1405 1336.8 58.28 1336.61 59.4541 1336.41C63.7202 1335.92 67.8986 1335.85 72.1885 1335.87C73.3786 1335.87 73.3786 1335.87 74.5928 1335.86C75.3604 1335.86 76.128 1335.86 76.9189 1335.87C77.9518 1335.87 77.9518 1335.87 79.0056 1335.87C81.106 1336.01 82.9786 1336.43 85.001 1337C84.7953 1336.47 84.5896 1335.95 84.3777 1335.4C63.8203 1282.62 45.8766 1219.33 69.8135 1164.56C75.5947 1151.93 83.4429 1141.92 93.001 1132C93.8576 1131.05 93.8576 1131.05 94.7314 1130.08C104.437 1119.6 117.622 1111.9 130.001 1105C131.174 1104.34 131.174 1104.34 132.371 1103.67C163.455 1086.4 209.675 1062 246.001 1062C246.119 1061.12 246.236 1060.24 246.357 1059.33C246.983 1056.09 247.893 1053.62 249.302 1050.65C250.016 1049.14 250.016 1049.14 250.745 1047.6C251.263 1046.53 251.78 1045.47 252.313 1044.37C253.12 1042.71 253.12 1042.71 253.943 1041.01C267.27 1013.95 285.015 989.5 305.661 967.55C308.023 965.037 308.023 965.037 310.095 962.354C311.773 960.281 313.379 958.673 315.438 956.999C319.334 953.817 322.791 950.246 326.29 946.64C332.184 940.608 338.354 935.184 345.001 929.999C346.353 928.939 346.353 928.939 347.731 927.858C353.754 923.24 359.954 918.921 366.251 914.686C366.995 914.183 367.74 913.679 368.507 913.16C383.444 903.222 383.444 903.222 392.001 903.999C399.236 906.305 405.71 911.27 412.081 915.322C417.225 918.577 422.459 921.468 428.001 923.999C428.264 923.406 428.528 922.813 428.799 922.202C430.051 919.907 431.324 918.528 433.228 916.753C437.005 913.08 440.208 909.138 443.376 904.936C443.937 904.195 444.498 903.454 445.076 902.691C454.401 890.242 463.334 876.969 468.001 861.999C467.384 862.186 466.767 862.373 466.131 862.565C458.756 864.697 451.341 866.091 443.763 867.252C441.794 867.555 439.827 867.873 437.86 868.192C416.447 871.587 395.094 872.377 373.438 872.311C372.161 872.309 370.883 872.307 369.566 872.305C350.879 872.254 332.488 871.973 314.001 868.999C312.766 868.806 311.532 868.612 310.26 868.413C261.645 860.539 210.025 841.944 179.044 801.44C177.295 798.998 175.63 796.523 174.001 793.999C173.501 793.233 173.001 792.467 172.485 791.679C158.807 769.865 152.997 745.915 152.876 720.311C152.869 719.268 152.869 719.268 152.862 718.203C152.878 713.245 152.878 713.245 154.001 710.999C153.258 710.731 152.516 710.463 151.751 710.186C149.11 709.046 147.145 707.905 145.001 705.999C145.001 705.339 145.001 704.679 145.001 703.999C144.432 703.781 143.864 703.563 143.278 703.339C133.069 697.332 127.685 682.4 124.688 671.624C119.928 652.591 122.287 630.504 131.001 612.999C131.393 612.201 131.785 611.403 132.188 610.581C133.372 608.319 134.642 606.16 136.001 603.999C136.666 602.926 136.666 602.926 137.345 601.831C146.613 588.473 162.002 580.584 177.501 577.186C198.395 573.462 222.396 575.29 241.001 585.999C241.961 586.524 242.922 587.048 243.911 587.589C258.112 595.89 268.053 610.542 272.38 626.331C276.206 648.928 270.663 671.583 257.938 690.472C249.194 701.879 239.434 707.86 226.134 712.702C221.645 714.56 217.917 717.167 214.001 719.999C213.341 720.329 212.681 720.659 212.001 720.999C215.372 743.635 222.785 762.502 240.931 777.405C275.159 802.14 317.718 809.95 359.001 812.999C359.749 813.057 360.497 813.115 361.267 813.174C392.195 815.481 423.488 813.999 454.284 810.609C459.873 810.012 465.382 809.906 471.001 809.999C466.823 795.075 460.797 781.399 453.001 767.999C442.878 768.597 432.877 769.684 422.829 771.03C421.329 771.228 419.83 771.426 418.33 771.624C415.22 772.035 412.111 772.449 409.002 772.865C405.015 773.398 401.027 773.924 397.038 774.448C393.956 774.854 390.875 775.263 387.794 775.673C386.322 775.869 384.85 776.063 383.378 776.257C381.334 776.526 379.291 776.8 377.248 777.075C376.087 777.23 374.925 777.384 373.729 777.544C371.046 777.854 371.046 777.854 369.001 778.999C365.612 779.292 362.214 779.277 358.813 779.311C357.88 779.34 356.946 779.369 355.983 779.399C349.749 779.456 346.125 778.592 341.001 774.999C341.001 774.339 341.001 773.679 341.001 772.999C340.341 772.999 339.681 772.999 339.001 772.999C323.86 758.724 321.307 728.763 317.938 709.436C317.768 708.473 317.597 707.509 317.421 706.516C314.376 689.288 312.075 672.041 310.355 654.633C310.149 652.026 310.149 652.026 309.001 649.999C308.495 645.993 308.299 641.966 308.063 637.936C307.923 636.274 307.923 636.274 307.78 634.579C307.34 626.571 308.684 622.021 314.001 615.999C322.818 606.219 334.436 598.741 345.001 590.999C346.185 590.125 346.185 590.125 347.393 589.234C365.069 576.192 383.532 564.763 402.408 553.542C404.189 552.482 405.956 551.4 407.711 550.3C410.001 548.999 410.001 548.999 412.001 548.999C411.697 547.943 411.393 546.888 411.08 545.8C407.607 533.709 404.198 521.601 400.806 509.487C400.571 508.648 400.336 507.809 400.094 506.945C399.114 503.448 398.135 499.951 397.156 496.454C386.578 458.647 386.578 458.647 375.876 420.874C375.651 420.081 375.425 419.288 375.193 418.471C374.566 416.269 373.937 414.067 373.306 411.866C373.022 410.874 373.022 410.874 372.732 409.862C371.743 406.442 370.703 403.045 369.601 399.66C369.369 398.943 369.137 398.226 368.898 397.487C368.256 395.518 367.603 393.553 366.948 391.589C365.229 385.07 365.044 378.641 368.294 372.593C374.825 364.277 385.633 361.202 395.321 358.065C396.396 357.711 397.472 357.357 398.579 356.992C402.092 355.839 405.608 354.699 409.126 353.561C410.346 353.164 411.566 352.767 412.823 352.358C434.266 345.385 455.833 338.929 477.511 332.732C485.374 330.48 493.219 328.168 501.06 325.835C592.532 298.621 683.489 275.268 882.001 246.999C883.905 246.82 883.905 246.82 885.847 246.638C893.225 245.968 900.606 245.44 908.001 244.999C908.71 244.956 909.419 244.913 910.149 244.869C915.932 244.522 921.716 244.194 927.501 243.874C928.291 243.829 929.081 243.784 929.895 243.738C960.774 242.011 960.774 242.011 974.813 244.186C975.689 244.317 976.565 244.448 977.468 244.583C990.799 246.753 1002.02 251.673 1011 261.999C1013.45 265.547 1015.57 269.247 1017.69 272.999C1018.29 274.051 1018.89 275.102 1019.51 276.186C1066.2 358.422 1093.25 466.319 1099.79 563.585C1099.85 566.009 1099.85 566.009 1101 567.999C1101.22 569.663 1101.39 571.334 1101.54 573.007C1101.62 573.993 1101.71 574.979 1101.8 575.995C1101.89 577.028 1101.97 578.06 1102.06 579.124C1102.15 580.164 1102.25 581.204 1102.34 582.276C1102.56 584.85 1102.78 587.424 1103 589.999C1103.98 588.744 1103.98 588.744 1104.99 587.464C1105.91 586.288 1106.83 585.112 1107.75 583.936C1108.25 583.304 1108.74 582.671 1109.25 582.019C1111.79 578.787 1114.34 575.572 1116.95 572.397C1124.35 563.364 1131.01 553.954 1137.5 544.245C1138.86 542.208 1140.24 540.182 1141.62 538.159C1185.25 474.102 1222.56 389.612 1207.84 310.371C1200.36 273.583 1185.26 240.536 1162 210.999C1161.28 210.089 1160.57 209.179 1159.83 208.241C1147.12 192.42 1132.96 177.559 1117 164.999C1115.27 163.541 1113.54 162.083 1111.81 160.624C1104.86 154.948 1097.49 149.933 1090 144.999C1089.21 144.473 1088.42 143.947 1087.61 143.406C1085.19 141.81 1082.75 140.244 1080.31 138.686C1079.18 137.938 1079.18 137.938 1078.03 137.175C1073.94 134.479 1073.94 134.479 1069.25 134.507C1067 136.001 1064.83 137.528 1062.69 139.186C1052.34 146.566 1040.46 150.787 1028 152.999C1026.83 153.226 1025.65 153.453 1024.44 153.686C1008.08 155.174 989.616 152.88 975.001 144.999C974.086 144.508 973.171 144.017 972.228 143.511C956.519 134.292 945.649 119.592 941.001 101.999C936.419 81.2908 939.917 58.4025 951.074 40.2538C964.95 19.4549 986.703 7.14802 1010.63 1.2489C1029.27 -2.46796 1047.43 0.104184 1063 11.4364Z" fill="#420139"/>
<path d="M981 269.002C981.415 269.878 981.83 270.755 982.258 271.658C986.387 280.211 990.952 288.405 995.812 296.564C1039.91 371.266 1057.68 469.258 1073.44 570.564C1073.6 571.729 1073.77 572.893 1073.94 574.093C1076.74 595.636 1076.74 595.636 1072.65 601.205C1071.57 601.88 1070.49 602.556 1069.38 603.252C1068.49 603.837 1068.49 603.837 1067.59 604.434C1066.35 605.25 1065.11 606.049 1063.85 606.829C1062.09 607.946 1060.42 609.129 1058.76 610.38C1030.88 631.315 999.097 646.679 967.173 660.336C966.166 660.771 965.159 661.206 964.121 661.654C963.228 662.035 962.336 662.417 961.416 662.81C958.98 663.893 958.98 663.893 957.13 665.566C954.115 667.598 951.385 667.817 947.793 668.326C947.062 668.433 946.331 668.54 945.578 668.65C943.116 669.007 940.652 669.348 938.188 669.689C936.406 669.945 934.624 670.201 932.842 670.459C928.96 671.019 925.077 671.573 921.194 672.122C914.891 673.014 908.592 673.931 902.293 674.853C893.077 676.201 883.859 677.542 874.641 678.877C866.152 680.106 857.665 681.343 849.18 682.592C816.592 687.389 783.978 691.944 751.335 696.348C724.922 699.912 698.52 703.557 672.125 707.252C670.274 707.511 668.424 707.77 666.573 708.029C665.208 708.219 665.208 708.219 663.816 708.414C660.222 708.917 656.628 709.42 653.034 709.923C651.289 710.167 649.545 710.411 647.8 710.655C633.412 712.669 619.02 714.659 604.625 716.627C581.781 719.75 558.943 722.916 536.107 726.095C533.01 726.526 529.913 726.957 526.816 727.388C526.044 727.496 525.272 727.603 524.476 727.714C513.503 729.241 502.528 730.756 491.551 732.263C463.322 736.139 435.1 740.038 406.938 744.377C405.913 744.534 404.889 744.691 403.833 744.854C392.074 746.667 380.34 748.599 368.625 750.676C363.758 751.537 358.897 752.338 354 753.002C349.775 729.606 345.846 706.17 342.125 682.689C341.827 680.821 341.827 680.821 341.523 678.915C340.951 675.323 340.385 671.731 339.82 668.138C339.651 667.075 339.481 666.012 339.307 664.916C338.275 658.292 337.523 651.685 337 645.002C378.65 627.527 426.709 621.538 471 614.002C472.375 613.766 472.375 613.766 473.779 613.526C533.015 603.387 592.734 595.817 652.477 589.383C655.863 589.016 659.247 588.644 662.632 588.27C698.199 584.357 733.848 581.465 769.513 578.613C773.18 578.32 776.847 578.025 780.514 577.731C804.347 575.821 828.186 573.979 852.047 572.441C854.038 572.313 856.029 572.183 858.02 572.051C877.017 570.799 895.97 570.669 915 571.002C917.349 578.311 919.697 585.621 922.043 592.932C922.84 595.413 923.638 597.895 924.435 600.377C925.588 603.964 926.739 607.551 927.891 611.138C928.242 612.231 928.593 613.323 928.955 614.448C931.064 621.024 933.123 627.613 935.138 634.219C936.173 637.561 937.283 640.846 938.5 644.127C939.072 645.708 939.072 645.708 939.656 647.322C941.111 650.222 942.171 651.451 945 653.002C948.96 653.002 951.113 652.861 954 650.064C956.663 641.909 953.005 632.236 950.875 624.252C950.565 623.073 950.255 621.894 949.936 620.68C947.218 610.497 944.067 600.484 940.793 590.469C938.928 584.667 937.251 578.809 935.567 572.952C934.994 570.981 934.402 569.017 933.805 567.052C933.436 565.819 933.067 564.585 932.688 563.314C932.361 562.238 932.035 561.161 931.699 560.052C930.823 556.229 930.163 552.767 931.891 549.123C941.598 537.1 952.636 526.203 963.565 515.306C965.765 513.112 967.959 510.913 970.152 508.713C971.575 507.29 972.998 505.868 974.422 504.447C975.065 503.802 975.708 503.157 976.37 502.493C981.614 497.276 986.98 492.199 992.969 487.841C996.713 485.027 999.485 482.688 1000.88 478.123C1001.49 467.301 997.227 456.828 993.875 446.707C992.927 443.777 992.091 440.831 991.28 437.862C980.717 399.544 963.299 361.815 945.25 326.564C944.743 325.564 944.237 324.564 943.715 323.533C936.403 308.753 936.403 308.753 923.754 299.287C918.659 298.769 915.358 298.919 911 302.002C908.616 304.928 908.573 308.23 908.695 311.939C909.361 316.443 912.058 319.758 914.73 323.287C925.883 338.046 933.212 355.313 941 372.002C941.413 372.882 941.825 373.763 942.25 374.67C943.387 377.109 944.509 379.553 945.625 382.002C945.956 382.712 946.286 383.423 946.627 384.156C948.099 387.437 948.988 389.873 949.336 393.502C950.006 397.031 950.391 397.725 952.574 400.31C957.921 406.951 960.617 415.245 963.812 423.064C964.52 424.775 965.227 426.485 965.935 428.195C967.66 432.37 969.37 436.551 971.074 440.735C971.92 442.807 972.774 444.876 973.631 446.943C974.956 450.144 976.264 453.352 977.562 456.564C977.938 457.471 978.314 458.378 978.7 459.312C979.982 462.553 980.961 465.288 981.152 468.779C979.317 472.319 976.47 474.231 973 476.002C969.213 476.95 965.432 477.273 961.547 477.584C960.451 477.688 959.355 477.791 958.226 477.898C954.735 478.224 951.243 478.519 947.75 478.814C945.418 479.03 943.086 479.248 940.754 479.468C938.498 479.675 936.241 479.88 933.984 480.084C932.948 480.177 931.911 480.271 930.842 480.368C924.212 480.926 917.652 481.11 911 481.002C911.491 479.02 911.987 477.048 912.549 475.085C914.597 465.63 912.303 455.727 910.438 446.439C910.166 445.05 909.895 443.661 909.625 442.271C909.055 439.348 908.477 436.426 907.894 433.506C907.144 429.742 906.414 425.975 905.69 422.206C903.028 408.361 900.324 394.536 896.812 380.877C896.587 379.99 896.361 379.103 896.129 378.189C893.569 368.132 893.569 368.132 887.688 359.939C884.152 358.706 881.72 358.47 878 359.002C874.84 361.543 873.285 363.148 872 367.002C870.091 400.317 869.23 455.316 888 484.002C880.945 485.206 874.166 486.283 867 486.002C867.026 485.23 867.052 484.458 867.079 483.663C867.241 475.08 866.297 467.058 864.75 458.627C864.523 457.355 864.297 456.082 864.063 454.772C862.336 445.309 860.223 436.114 857.352 426.928C854.79 418.597 852.711 410.14 850.63 401.678C846.813 384.661 846.813 384.661 838 370.002C834.785 368.394 831.487 368.545 828 369.002C825.12 370.593 824.301 372.049 823.32 375.154C819.855 390.936 822.762 406.269 825.812 421.814C826.354 424.637 826.891 427.462 827.426 430.286C827.779 432.145 828.133 434.004 828.49 435.862C829.645 441.941 830.665 448.03 831.598 454.146C832.665 461.131 833.971 468.003 835.625 474.877C836.055 476.707 836.485 478.538 836.914 480.369C837.099 481.143 837.284 481.918 837.475 482.716C838.031 485.136 838.517 487.566 839 490.002C832.38 490.86 825.76 491.714 819.139 492.565C816.887 492.855 814.634 493.146 812.382 493.438C809.146 493.857 805.909 494.274 802.672 494.689C801.664 494.82 800.657 494.952 799.619 495.087C798.678 495.207 797.738 495.327 796.769 495.451C795.942 495.557 795.116 495.664 794.265 495.774C792 496.002 792 496.002 788 496.002C787.896 495.235 787.791 494.468 787.684 493.677C785.037 474.374 782.139 455.112 779.083 435.87C778.7 433.448 778.318 431.026 777.939 428.603C776.062 416.619 774.083 404.664 771.531 392.802C771.352 391.925 771.173 391.047 770.988 390.143C769.697 384.419 767.689 379.622 764 375.002C763.34 374.672 762.68 374.342 762 374.002C762 373.342 762 372.682 762 372.002C756.489 372.291 756.489 372.291 751.625 374.564C744.528 385.21 748.011 401.869 749.062 413.877C749.123 414.583 749.183 415.29 749.245 416.018C751.124 437.823 754.068 459.527 756.896 481.225C757.705 487.475 758.413 493.726 759 500.002C754.626 500.675 750.251 501.339 745.875 502.002C744.638 502.192 743.4 502.383 742.125 502.58C740.926 502.76 739.727 502.941 738.492 503.127C737.392 503.294 736.293 503.462 735.16 503.634C732.072 503.993 729.105 504.027 726 504.002C723.916 494.028 722.164 484.063 720.695 473.978C720.488 472.58 720.28 471.181 720.072 469.783C719.202 463.944 718.341 458.103 717.485 452.262C715.357 437.769 713.202 423.287 710.43 408.9C710.245 407.904 710.059 406.908 709.869 405.882C708.535 399.237 706.923 392.609 701.688 387.939C698.021 386.66 695.727 386.985 692 388.002C688.221 390.759 687.197 393.564 686 398.002C685.802 400.827 685.707 403.523 685.738 406.345C685.744 407.167 685.749 407.988 685.755 408.834C685.924 419.771 687.07 430.629 688.188 441.502C688.298 442.607 688.408 443.713 688.522 444.852C690.117 460.834 692.018 476.746 694.475 492.619C694.676 493.917 694.876 495.215 695.082 496.552C695.26 497.663 695.437 498.773 695.62 499.917C696 503.002 696 503.002 696 509.002C689.07 509.992 682.14 510.982 675 512.002C675.037 510.119 675.074 508.236 675.112 506.297C675.108 499.474 674.325 493.001 673.207 486.283C672.928 484.529 672.928 484.529 672.642 482.739C672.043 478.992 671.428 475.247 670.812 471.502C670.395 468.921 669.978 466.341 669.562 463.76C668.561 457.576 667.548 451.394 666.528 445.213C666.065 442.394 665.605 439.574 665.147 436.755C662.844 411.607 662.844 411.607 651.25 390.627C647.796 389.667 644.522 389.434 641 390.002C636.919 392.397 635.395 394.557 634 399.002C633.787 401.543 633.682 403.936 633.707 406.474C633.712 407.212 633.716 407.95 633.721 408.71C633.899 418.372 635.323 427.887 636.688 437.439C636.963 439.42 637.237 441.4 637.511 443.381C638.198 448.326 638.899 453.268 639.604 458.21C640.094 461.662 640.57 465.116 641.045 468.569C641.465 471.613 641.894 474.656 642.326 477.698C642.521 479.077 642.713 480.455 642.903 481.834C644.506 493.399 646.544 505.155 651 516.002C643.732 517.144 636.463 518.283 629.194 519.418C625.817 519.946 622.439 520.474 619.063 521.006C590.332 525.521 590.332 525.521 576 527.002C575.901 526.392 575.801 525.782 575.699 525.153C569.143 483.93 569.143 483.93 561 443.002C560.784 442.028 560.568 441.054 560.345 440.05C559.735 437.36 559.096 434.68 558.438 432.002C558.177 430.887 558.177 430.887 557.911 429.751C556.574 424.645 554.592 421.724 551 418.002C547.285 416.144 543.044 416.417 539 417.002C536.176 419.192 534.585 420.832 533 424.002C532.296 437.134 533.638 449.657 535.809 462.584C536.099 464.38 536.388 466.177 536.676 467.974C537.427 472.641 538.195 477.305 538.968 481.969C539.753 486.728 540.521 491.491 541.291 496.254C543.167 507.841 545.067 519.424 547 531.002C545.756 530.955 544.512 530.909 543.23 530.861C532.195 530.573 522.883 530.793 513.5 537.314C512.262 538.149 512.262 538.149 511 539.002C510.01 538.672 509.02 538.342 508 538.002C508.639 537.073 509.279 536.145 509.938 535.189C515.044 527.298 512.681 519.36 510.953 510.681C510.741 509.587 510.528 508.492 510.309 507.365C509.629 503.867 508.94 500.372 508.25 496.877C507.801 494.581 507.354 492.286 506.906 489.99C506.027 485.48 505.145 480.971 504.26 476.463C502.918 469.604 501.611 462.739 500.325 455.87C497.717 438.896 497.717 438.896 490 424.002C486.285 421.707 483.348 421.468 479 422.002C475.527 424.72 473.733 426.691 473 431.002C470.981 457.544 476.932 486.059 482 512.002C482.17 512.876 482.34 513.75 482.515 514.651C484.153 522.787 485.895 530.968 492 537.002C494.36 538.464 496.311 539.195 499 540.002C496.237 542.764 493.191 542.996 489.484 543.736C487.917 544.063 486.349 544.391 484.781 544.718C483.958 544.887 483.136 545.056 482.289 545.23C469.483 547.862 456.773 550.633 444.21 554.274C438.242 556.002 438.242 556.002 435 556.002C434.816 555.134 434.631 554.267 434.441 553.373C432.314 543.732 429.67 534.281 426.875 524.814C416.059 488.095 406.979 450.984 399.666 413.41C398.67 408.312 397.648 403.219 396.625 398.127C396.305 396.525 395.984 394.924 395.664 393.322C395.445 392.226 395.226 391.131 395 390.002C400.899 387.744 406.838 385.684 412.844 383.728C414.294 383.255 414.294 383.255 415.774 382.772C452.116 370.96 488.755 360.251 525.486 349.722C528.049 348.988 530.611 348.252 533.174 347.516C602.651 327.569 671.732 308.782 743.059 296.509C746.115 295.982 749.17 295.45 752.225 294.917C819.89 283.14 887.645 274.618 956.179 270.184C958.777 270.016 961.376 269.844 963.974 269.672C965.403 269.578 966.833 269.485 968.262 269.392C969.441 269.315 970.62 269.238 971.835 269.159C974.896 269.007 977.936 268.973 981 269.002Z" fill="#24BF98"/>
<path d="M387.999 933C392.556 933.378 395.066 935.309 398.624 938.062C416.694 951.515 437.363 962.05 456.999 973C458.56 973.871 458.56 973.871 460.152 974.76C467.5 978.857 474.856 982.939 482.216 987.013C484.023 988.013 485.83 989.014 487.636 990.014C501.167 997.505 514.722 1004.95 528.337 1012.28C534.982 1015.88 541.563 1019.57 548.124 1023.31C557.637 1028.74 567.27 1033.91 576.946 1039.03C585.159 1043.38 593.307 1047.82 601.374 1052.44C611.165 1058.04 621.104 1063.34 631.082 1068.6C640.761 1073.71 650.333 1078.96 659.831 1084.4C666.309 1088.09 672.871 1091.58 679.499 1095C687.076 1098.9 694.54 1102.95 701.937 1107.19C711.193 1112.49 720.567 1117.53 729.999 1122.5C739.201 1127.35 748.35 1132.26 757.374 1137.44C767.534 1143.26 777.871 1148.73 788.236 1154.18C797.976 1159.3 807.615 1164.55 817.159 1170.03C826.398 1175.3 835.812 1180.22 845.226 1185.17C855.228 1190.43 865.127 1195.83 874.933 1201.45C882.297 1205.65 889.788 1209.57 897.326 1213.46C908.05 1219.01 918.529 1224.99 928.999 1231C921.708 1273.29 889.316 1312.73 861.265 1343.49C859.383 1345.57 857.533 1347.68 855.691 1349.8C850.23 1356.05 844.518 1362.06 838.801 1368.08C837.191 1369.8 835.615 1371.54 834.05 1373.29C833.208 1374.21 832.366 1375.12 831.499 1376.06C830.432 1377.26 830.432 1377.26 829.343 1378.47C826.999 1380 826.999 1380 823.999 1380.14C818.094 1378.87 812.773 1375.57 807.499 1372.75C806.292 1372.11 805.084 1371.48 803.877 1370.84C793.432 1365.32 783.15 1359.52 772.9 1353.65C768.854 1351.35 764.786 1349.08 760.718 1346.82C751.354 1341.61 742.051 1336.31 732.812 1330.88C724.389 1325.92 715.883 1321.17 707.283 1316.54C700.478 1312.85 693.791 1308.99 687.124 1305.06C678.113 1299.76 668.997 1294.69 659.782 1289.75C653.362 1286.3 647.003 1282.76 640.687 1279.12C631.604 1273.89 622.456 1268.79 613.289 1263.71C605.681 1259.49 598.085 1255.26 590.499 1251C578.345 1244.18 566.165 1237.42 553.98 1230.65C549.986 1228.44 545.992 1226.22 541.999 1224C540.581 1223.21 539.163 1222.42 537.745 1221.64C526.847 1215.58 526.847 1215.58 523.507 1213.73C521.197 1212.44 518.887 1211.16 516.577 1209.88C510.812 1206.67 505.047 1203.47 499.284 1200.27C484.709 1192.16 470.116 1184.09 455.511 1176.04C451.194 1173.66 446.879 1171.28 442.566 1168.89C440.106 1167.53 437.646 1166.17 435.187 1164.81C434.281 1164.31 434.281 1164.31 433.356 1163.8C424.159 1158.72 414.926 1153.71 405.676 1148.72C398.878 1145.05 392.148 1141.27 385.437 1137.44C376.895 1132.57 368.254 1127.94 359.518 1123.43C353.291 1120.21 347.133 1116.89 340.999 1113.5C331.36 1108.2 321.608 1103.12 311.827 1098.08C310.139 1097.21 308.453 1096.34 306.767 1095.47C297.153 1090.49 287.525 1085.73 277.507 1081.61C275.637 1080.82 273.812 1079.92 271.999 1079C270.737 1075.21 271.444 1074.43 273.14 1070.91C273.627 1069.89 274.115 1068.86 274.618 1067.81C275.156 1066.72 275.694 1065.63 276.249 1064.5C276.799 1063.37 277.349 1062.25 277.916 1061.09C291.058 1034.48 307.683 1010.24 327.804 988.406C329.66 986.372 331.462 984.307 333.261 982.223C336.987 977.955 340.92 973.931 344.937 969.938C345.601 969.269 346.266 968.601 346.95 967.912C351.468 963.403 356.15 959.149 360.999 955C361.54 954.532 362.08 954.065 362.637 953.583C369.75 947.44 377.025 941.574 384.515 935.898C386.818 934.225 386.818 934.225 387.999 933Z" fill="#24C098"/>
<path d="M889 276.001C892.662 279.056 895.248 283.127 898 287.001C898.488 287.67 898.976 288.34 899.479 289.029C901.039 291.187 902.556 293.369 904.062 295.564C904.552 296.247 905.041 296.93 905.546 297.634C908.754 302.474 909.469 305.981 909.027 311.775C908.97 316.443 912.044 319.743 914.73 323.278C925.866 338.059 933.208 355.304 941 372.001C941.413 372.882 941.825 373.762 942.25 374.67C943.387 377.108 944.509 379.553 945.625 382.001C945.956 382.712 946.286 383.423 946.627 384.155C948.099 387.437 948.988 389.872 949.336 393.501C950.006 397.031 950.391 397.724 952.574 400.31C957.921 406.951 960.617 415.244 963.812 423.064C964.52 424.774 965.227 426.484 965.935 428.194C967.66 432.369 969.37 436.551 971.074 440.734C971.92 442.806 972.774 444.875 973.631 446.943C974.956 450.144 976.264 453.351 977.562 456.564C977.938 457.471 978.314 458.377 978.7 459.312C979.982 462.553 980.961 465.288 981.152 468.778C979.317 472.318 976.47 474.23 973 476.001C969.213 476.949 965.432 477.272 961.547 477.583C960.451 477.687 959.355 477.791 958.226 477.898C954.735 478.223 951.243 478.518 947.75 478.814C945.418 479.03 943.086 479.248 940.754 479.468C938.498 479.675 936.241 479.88 933.984 480.083C932.948 480.177 931.911 480.27 930.842 480.367C924.212 480.925 917.652 481.109 911 481.001C911.491 479.02 911.987 477.047 912.549 475.085C914.597 465.629 912.303 455.726 910.438 446.439C910.166 445.05 909.895 443.66 909.625 442.271C909.055 439.348 908.477 436.426 907.894 433.505C907.144 429.741 906.414 425.974 905.69 422.206C903.028 408.361 900.324 394.535 896.812 380.876C896.587 379.989 896.361 379.102 896.129 378.188C893.569 368.132 893.569 368.132 887.688 359.939C884.152 358.705 881.72 358.47 878 359.001C874.84 361.542 873.285 363.147 872 367.001C870.092 400.317 869.23 455.315 888 484.001C880.945 485.206 874.166 486.282 867 486.001C867.026 485.229 867.052 484.458 867.079 483.663C867.241 475.079 866.297 467.057 864.75 458.626C864.523 457.354 864.297 456.082 864.063 454.771C862.336 445.308 860.223 436.114 857.352 426.928C854.79 418.596 852.711 410.139 850.63 401.677C846.813 384.66 846.813 384.66 838 370.001C834.785 368.393 831.487 368.544 828 369.001C825.12 370.593 824.301 372.048 823.32 375.153C819.855 390.935 822.762 406.269 825.812 421.814C826.354 424.637 826.891 427.461 827.426 430.286C827.779 432.145 828.133 434.003 828.49 435.862C829.645 441.94 830.665 448.029 831.598 454.146C832.665 461.131 833.971 468.003 835.625 474.876C836.055 476.707 836.485 478.537 836.914 480.368C837.099 481.143 837.284 481.917 837.475 482.715C838.031 485.136 838.517 487.565 839 490.001C832.38 490.859 825.76 491.713 819.139 492.565C816.887 492.855 814.634 493.146 812.382 493.438C809.146 493.857 805.909 494.273 802.672 494.689C801.664 494.82 800.657 494.951 799.619 495.086C798.678 495.206 797.738 495.327 796.769 495.45C795.942 495.557 795.116 495.663 794.265 495.773C792 496.001 792 496.001 788 496.001C787.896 495.234 787.791 494.467 787.684 493.677C785.037 474.374 782.139 455.112 779.083 435.869C778.7 433.447 778.318 431.025 777.939 428.602C776.062 416.618 774.083 404.664 771.531 392.802C771.352 391.924 771.173 391.047 770.988 390.142C769.697 384.418 767.689 379.621 764 375.001C763.34 374.671 762.68 374.341 762 374.001C762 373.341 762 372.681 762 372.001C756.489 372.291 756.489 372.291 751.625 374.564C744.528 385.209 748.011 401.868 749.062 413.876C749.123 414.583 749.183 415.29 749.245 416.018C751.124 437.822 754.068 459.527 756.896 481.224C757.705 487.475 758.413 493.726 759 500.001C754.626 500.675 750.251 501.339 745.875 502.001C744.638 502.192 743.4 502.383 742.125 502.579C740.926 502.76 739.727 502.94 738.492 503.126C737.392 503.294 736.293 503.461 735.16 503.634C732.072 503.993 729.105 504.027 726 504.001C723.916 494.027 722.164 484.063 720.695 473.978C720.488 472.579 720.28 471.181 720.072 469.782C719.202 463.943 718.341 458.103 717.485 452.261C715.357 437.768 713.202 423.286 710.43 408.9C710.245 407.904 710.059 406.908 709.869 405.882C708.535 399.237 706.923 392.609 701.688 387.939C698.021 386.66 695.727 386.985 692 388.001C688.221 390.759 687.197 393.563 686 398.001C685.802 400.827 685.707 403.523 685.738 406.345C685.744 407.166 685.749 407.988 685.755 408.834C685.924 419.771 687.07 430.629 688.188 441.501C688.298 442.607 688.408 443.712 688.522 444.852C690.117 460.833 692.018 476.746 694.475 492.618C694.676 493.916 694.876 495.214 695.082 496.552C695.26 497.662 695.437 498.772 695.62 499.916C696 503.001 696 503.001 696 509.001C689.07 509.991 682.14 510.981 675 512.001C675.037 510.118 675.074 508.236 675.112 506.296C675.108 499.474 674.325 493.001 673.207 486.282C672.928 484.528 672.928 484.528 672.642 482.739C672.043 478.991 671.428 475.246 670.812 471.501C670.395 468.921 669.978 466.34 669.562 463.759C668.561 457.575 667.548 451.393 666.528 445.212C666.065 442.393 665.605 439.574 665.147 436.754C662.844 411.607 662.844 411.607 651.25 390.626C647.796 389.667 644.522 389.434 641 390.001C636.919 392.396 635.395 394.556 634 399.001C633.787 401.543 633.683 403.935 633.707 406.474C633.712 407.212 633.716 407.949 633.721 408.709C633.899 418.372 635.323 427.886 636.688 437.439C636.963 439.419 637.237 441.4 637.511 443.381C638.198 448.325 638.899 453.268 639.604 458.21C640.094 461.661 640.57 465.115 641.045 468.569C641.465 471.613 641.894 474.656 642.326 477.698C642.521 479.076 642.713 480.455 642.903 481.834C644.506 493.398 646.544 505.155 651 516.001C643.732 517.144 636.463 518.283 629.194 519.418C625.817 519.945 622.439 520.474 619.063 521.005C590.332 525.521 590.332 525.521 576 527.001C575.851 526.086 575.851 526.086 575.699 525.153C569.143 483.93 569.143 483.93 561 443.001C560.784 442.027 560.568 441.053 560.345 440.049C559.735 437.36 559.096 434.679 558.438 432.001C558.177 430.887 558.177 430.887 557.911 429.75C556.574 424.645 554.592 421.724 551 418.001C547.285 416.144 543.044 416.416 539 417.001C536.176 419.191 534.585 420.831 533 424.001C532.296 437.133 533.638 449.657 535.809 462.583C536.099 464.38 536.388 466.177 536.676 467.974C537.427 472.641 538.195 477.305 538.968 481.968C539.753 486.728 540.521 491.491 541.291 496.253C543.167 507.84 545.067 519.423 547 531.001C545.756 530.955 544.512 530.908 543.23 530.86C532.195 530.572 522.883 530.793 513.5 537.314C512.262 538.149 512.262 538.149 511 539.001C510.01 538.671 509.02 538.341 508 538.001C508.639 537.073 509.279 536.145 509.938 535.189C515.044 527.297 512.681 519.36 510.953 510.681C510.741 509.586 510.528 508.492 510.309 507.364C509.629 503.867 508.94 500.372 508.25 496.876C507.801 494.581 507.354 492.285 506.906 489.989C506.027 485.48 505.145 480.971 504.26 476.462C502.918 469.604 501.611 462.739 500.325 455.869C497.717 438.896 497.717 438.896 490 424.001C486.285 421.706 483.348 421.467 479 422.001C475.527 424.719 473.733 426.69 473 431.001C470.981 457.544 476.932 486.059 482 512.001C482.17 512.875 482.34 513.75 482.515 514.651C484.153 522.786 485.895 530.968 492 537.001C494.36 538.464 496.311 539.194 499 540.001C496.237 542.764 493.191 542.995 489.484 543.735C487.917 544.063 486.349 544.39 484.781 544.718C483.958 544.887 483.136 545.055 482.289 545.229C469.483 547.861 456.773 550.632 444.21 554.274C438.242 556.001 438.242 556.001 435 556.001C434.816 555.134 434.631 554.266 434.441 553.372C432.314 543.731 429.67 534.281 426.875 524.814C416.059 488.094 406.979 450.984 399.666 413.409C398.67 408.311 397.648 403.219 396.625 398.126C396.305 396.525 395.984 394.923 395.664 393.321C395.445 392.226 395.226 391.13 395 390.001C400.899 387.743 406.838 385.684 412.844 383.728C414.294 383.255 414.294 383.255 415.774 382.772C452.116 370.959 488.755 360.25 525.486 349.722C528.049 348.987 530.611 348.252 533.174 347.516C602.651 327.569 671.732 308.781 743.059 296.508C746.115 295.981 749.17 295.449 752.225 294.916C778.36 290.368 804.531 286.235 830.812 282.626C832.001 282.463 833.19 282.299 834.415 282.131C846.874 280.428 859.343 278.804 871.824 277.275C873.38 277.081 873.38 277.081 874.968 276.883C884.951 275.681 884.951 275.681 889 276.001Z" fill="#FDE7E5"/>
<path d="M1063 11.4364C1075.99 22.256 1083.68 38.4246 1086 54.9989C1086 56.424 1085.96 57.8495 1085.88 59.2723C1085.64 63.5532 1085.7 66.8638 1087 70.9989C1091.35 74.5951 1096.16 76.5082 1101.3 78.7333C1106.36 81.1043 1111.03 84.0922 1115.75 87.0614C1116.77 87.6965 1117.78 88.3316 1118.82 88.986C1129.36 95.6995 1139.24 103.213 1149 110.999C1149.6 111.471 1150.19 111.943 1150.81 112.429C1156.53 116.968 1162.03 121.734 1167.42 126.663C1169.52 128.559 1171.64 130.411 1173.77 132.257C1178.16 136.091 1182.32 140.127 1186.44 144.249C1187.19 144.996 1187.93 145.743 1188.7 146.513C1193.43 151.295 1197.85 156.14 1201.99 161.444C1203.35 163.166 1204.75 164.848 1206.2 166.491C1240.26 205.281 1262.72 256.954 1269 307.999C1269.1 308.798 1269.21 309.597 1269.31 310.421C1279.26 390.402 1253.26 473.453 1211 540.999C1210.4 541.957 1209.81 542.915 1209.19 543.902C1201.6 556.033 1193.9 568.02 1185.22 579.401C1183.99 581.01 1182.78 582.629 1181.58 584.253C1177.13 590.228 1172.6 596.14 1168 601.999C1167.67 601.009 1167.34 600.019 1167 598.999C1167.33 598.339 1167.66 597.679 1168 596.999C1167.36 594.916 1167.36 594.916 1166.27 592.597C1165.88 591.712 1165.49 590.827 1165.09 589.915C1164.67 588.974 1164.25 588.032 1163.81 587.061C1158.67 575.362 1158.67 575.362 1156.88 570.124C1155.13 565.085 1152.87 560.315 1150.58 555.507C1148.16 550.411 1146.03 545.262 1144 539.999C1140.37 544.619 1136.74 549.239 1133 553.999C1133 550.295 1134 549.185 1136.08 546.159C1136.74 545.189 1137.4 544.219 1138.08 543.219C1138.8 542.177 1139.51 541.135 1140.25 540.061C1184.22 475.062 1222.79 390.864 1207.84 310.371C1200.36 273.583 1185.26 240.536 1162 210.999C1161.28 210.089 1160.57 209.179 1159.83 208.241C1147.12 192.42 1132.96 177.559 1117 164.999C1115.27 163.541 1113.54 162.083 1111.81 160.624C1104.86 154.948 1097.49 149.933 1090 144.999C1089.21 144.473 1088.42 143.947 1087.61 143.406C1085.19 141.81 1082.76 140.244 1080.31 138.686C1079.56 138.188 1078.81 137.689 1078.03 137.175C1073.94 134.479 1073.94 134.479 1069.25 134.507C1067 136.001 1064.83 137.528 1062.69 139.186C1052.34 146.566 1040.46 150.787 1028 152.999C1026.83 153.226 1025.65 153.453 1024.44 153.686C1008.08 155.174 989.617 152.88 975.002 144.999C974.086 144.508 973.171 144.017 972.228 143.511C956.519 134.292 945.649 119.592 941.002 101.999C936.419 81.2908 939.918 58.4025 951.074 40.2538C964.95 19.4549 986.704 7.14802 1010.63 1.2489C1029.27 -2.46796 1047.43 0.104184 1063 11.4364ZM1131 553.999C1131.33 554.659 1131.66 555.319 1132 555.999C1129.36 559.629 1126.72 563.259 1124 566.999C1123.34 566.669 1122.68 566.339 1122 565.999C1124.97 562.039 1127.94 558.079 1131 553.999Z" fill="#410038"/>
<path d="M480 895C485.418 895.67 490.229 897.365 495.328 899.219C496.248 899.548 497.168 899.878 498.116 900.217C500.112 900.932 502.107 901.649 504.102 902.367C509.536 904.323 514.977 906.257 520.418 908.191C521.546 908.592 522.673 908.993 523.835 909.407C571.098 926.179 618.837 941.618 666.628 956.81C684.415 962.466 702.141 968.288 719.823 974.265C722.011 975.004 724.2 975.739 726.39 976.472C780.642 994.659 834.738 1014.12 886.92 1037.66C890.627 1039.27 894.389 1040.7 898.198 1042.05C900 1043 900 1043 901 1046C899.548 1048.51 898.059 1050.78 896.375 1053.12C895.879 1053.83 895.384 1054.53 894.873 1055.26C886.25 1067.4 877.135 1079.12 867.395 1090.38C865.921 1092.09 864.46 1093.81 863 1095.53C857.572 1101.91 852.045 1108.17 846.375 1114.34C843.93 1117.08 841.615 1119.89 839.312 1122.75C836.209 1126.6 833.004 1130.16 829.41 1133.56C827.765 1135.15 827.765 1135.15 826 1138C825.34 1138 824.68 1138 824 1138C824 1138.66 824 1139.32 824 1140C819.876 1138.45 816.022 1136.51 812.145 1134.44C811.49 1134.09 810.836 1133.74 810.162 1133.38C808.044 1132.26 805.928 1131.13 803.812 1130C802.346 1129.22 800.88 1128.44 799.414 1127.66C791.387 1123.38 783.386 1119.05 775.453 1114.6C769.443 1111.23 763.38 1107.96 757.312 1104.69C749.445 1100.45 741.637 1096.12 733.875 1091.69C724.363 1086.26 714.731 1081.09 705.055 1075.97C695.87 1071.1 686.785 1066.1 677.762 1060.93C669.281 1056.11 660.674 1051.53 652.051 1046.97C643.839 1042.62 635.691 1038.18 627.625 1033.56C617.83 1027.96 607.887 1022.66 597.906 1017.4C589.404 1012.91 580.965 1008.35 572.625 1003.56C561.715 997.309 550.608 991.451 539.483 985.591C530.587 980.905 521.725 976.163 512.908 971.329C501.642 965.152 490.32 959.079 479 953C477.738 952.322 476.476 951.644 475.214 950.966C472.013 949.246 468.811 947.527 465.609 945.81C464.383 945.152 463.157 944.494 461.932 943.836C460.221 942.917 458.509 942 456.797 941.082C455.821 940.558 454.845 940.035 453.839 939.495C450.913 937.954 447.963 936.469 445 935C446.574 930.977 449.223 928.809 452.438 926C462.889 916.653 471.646 906.235 480 895Z" fill="#879698"/>
<path d="M913 699.002C951.63 800.748 951.63 800.748 957 852.002C952.133 851.393 947.55 850.431 942.828 849.111C941.425 848.727 940.021 848.343 938.617 847.959C936.47 847.367 934.323 846.772 932.179 846.169C909.476 839.808 886.074 836.401 862.812 832.752C861.62 832.563 860.427 832.375 859.197 832.181C838.498 828.917 817.764 825.964 797.008 823.093C774.011 819.91 751.105 816.379 728.235 812.39C724.657 811.769 721.077 811.161 717.496 810.553C709.557 809.203 701.621 807.836 693.686 806.465C690.684 805.947 687.683 805.43 684.681 804.913C678.885 803.915 673.089 802.916 667.294 801.915C665.005 801.52 662.716 801.125 660.427 800.731C639.645 797.15 639.645 797.15 630.066 795.33C624.432 794.259 618.796 793.289 613.125 792.439C608.54 791.75 603.981 791.017 599.439 790.082C593.779 788.941 588.098 787.947 582.406 786.978C580.767 786.699 580.767 786.699 579.094 786.414C549.997 781.447 549.997 781.447 520.75 777.502C519.729 777.38 519.729 777.38 518.687 777.257C512.523 776.532 506.437 775.918 500.227 775.971C489.109 776.064 489.109 776.064 485.156 772.279C483.011 769.384 481.428 766.312 480 763.002C482.789 760.213 484.995 760.372 488.891 759.832C489.606 759.73 490.321 759.629 491.057 759.524C493.454 759.186 495.852 758.86 498.25 758.533C499.949 758.295 501.648 758.056 503.348 757.817C506.989 757.305 510.632 756.798 514.275 756.294C522.952 755.095 531.625 753.87 540.298 752.645C542.257 752.369 544.216 752.093 546.175 751.817C563.594 749.364 580.991 746.787 598.379 744.12C620.051 740.797 641.735 737.564 663.438 734.439C683.453 731.557 703.451 728.58 723.438 725.502C746.518 721.948 769.622 718.592 792.743 715.315C810.088 712.856 827.422 710.332 844.75 707.752C846.981 707.42 849.212 707.089 851.443 706.757C852.519 706.598 853.594 706.438 854.702 706.273C856.284 706.038 856.284 706.038 857.898 705.799C858.932 705.645 859.965 705.492 861.03 705.334C863.048 705.034 865.066 704.734 867.084 704.435C869.001 704.15 870.917 703.865 872.834 703.581C877.93 702.824 883.026 702.072 888.125 701.331C889.595 701.116 891.066 700.899 892.536 700.68C894.51 700.386 896.485 700.1 898.461 699.814C899.542 699.656 900.622 699.497 901.736 699.334C905.525 698.948 909.192 698.948 913 699.002Z" fill="#FDE7E5"/>
<path d="M151.001 1094C151.282 1094.57 151.562 1095.15 151.851 1095.74C159.378 1110.55 168.876 1124.38 179.567 1137.07C180.309 1137.95 181.05 1138.84 181.813 1139.75C182.459 1140.49 183.105 1141.22 183.771 1141.98C185.001 1144 185.001 1144 184.829 1145.99C183.719 1148.68 182.628 1149.03 179.978 1150.16C179.13 1150.53 178.283 1150.91 177.41 1151.3C176.491 1151.69 175.573 1152.09 174.626 1152.5C155.231 1161.31 134.96 1172.27 125.751 1192.5C124.026 1197.21 123.11 1202.01 122.251 1206.94C122.123 1207.66 121.995 1208.39 121.863 1209.14C113.379 1262.96 145.378 1328.54 173.892 1372.46C181.878 1384.82 186.822 1397.97 185.001 1413C182.728 1422.58 176.568 1430.83 168.501 1436.38C167.015 1437.27 165.515 1438.15 164.001 1439C163.389 1439.37 162.776 1439.73 162.146 1440.11C153.279 1445.02 143.278 1447.07 133.294 1448.1C132.474 1448.18 131.654 1448.27 130.809 1448.35C121.42 1449.25 112.051 1449.35 102.626 1449.31C101.731 1449.31 100.836 1449.31 99.9136 1449.31C68.7867 1449.19 43.8867 1443.82 19.001 1424C18.3332 1423.51 17.6655 1423.02 16.9775 1422.52C6.46393 1414.43 1.82406 1402.71 0.000978895 1390C-0.541181 1378.25 3.18319 1368.18 10.8252 1359.34C11.9022 1358.18 11.9022 1358.18 13.001 1357C13.6468 1356.3 14.2926 1355.6 14.958 1354.88C26.1882 1343.86 40.8725 1339.52 56.001 1337C57.1405 1336.81 58.28 1336.61 59.4541 1336.41C63.7202 1335.92 67.8986 1335.85 72.1885 1335.88C73.3786 1335.87 73.3786 1335.87 74.5928 1335.86C75.7442 1335.87 75.7442 1335.87 76.9189 1335.87C77.9518 1335.87 77.9518 1335.87 79.0056 1335.87C81.106 1336.01 82.9786 1336.43 85.001 1337C84.6924 1336.21 84.6924 1336.21 84.3777 1335.41C63.8203 1282.62 45.8766 1219.33 69.8135 1164.56C75.5947 1151.94 83.4429 1141.92 93.001 1132C93.572 1131.37 94.1431 1130.73 94.7314 1130.08C109.713 1113.9 131.732 1103.89 151.001 1094Z" fill="#410038"/>
<path d="M240.998 585.998C241.959 586.523 242.919 587.048 243.909 587.588C258.109 595.89 268.05 610.541 272.377 626.33C276.204 648.927 270.661 671.583 257.936 690.471C249.191 701.878 239.432 707.859 226.131 712.701C221.642 714.56 217.914 717.167 213.998 719.998C213.338 720.328 212.678 720.658 211.998 720.998C215.369 743.634 222.783 762.501 240.928 777.404C278.067 804.243 323.592 810.006 367.998 813.998C371.374 821.666 374.211 829.245 376.248 837.373C376.633 838.898 376.633 838.898 377.026 840.453C379.495 850.924 379.977 861.276 379.998 871.998C312.634 873.132 242.129 862.581 190.998 814.998C184.487 808.626 178.933 801.644 173.998 793.998C173.498 793.233 172.998 792.467 172.483 791.678C158.804 769.864 152.994 745.914 152.873 720.311C152.866 719.267 152.866 719.267 152.859 718.203C152.875 713.245 152.875 713.245 153.998 710.998C153.256 710.73 152.513 710.462 151.748 710.186C149.108 709.045 147.143 707.904 144.998 705.998C144.998 705.338 144.998 704.678 144.998 703.998C144.43 703.78 143.861 703.563 143.276 703.338C133.066 697.331 127.682 682.399 124.686 671.623C119.926 652.59 122.285 630.503 130.998 612.998C131.586 611.801 131.586 611.801 132.186 610.58C133.369 608.318 134.64 606.159 135.998 603.998C136.442 603.283 136.885 602.567 137.342 601.83C146.61 588.472 161.999 580.583 177.498 577.186C198.393 573.461 222.393 575.289 240.998 585.998Z" fill="#410038"/>
<path d="M959 881.999C959.115 891.59 959.136 901.032 957.875 910.561C957.744 911.566 957.613 912.571 957.477 913.606C952.336 950.11 936.557 983.003 919.625 1015.31C919.196 1016.13 918.767 1016.95 918.324 1017.79C917.921 1018.56 917.517 1019.32 917.102 1020.11C916.565 1021.13 916.565 1021.13 916.018 1022.17C915.095 1023.83 914.053 1025.42 913 1027C908.473 1025.61 904.309 1023.78 900.094 1021.65C898.717 1020.96 897.339 1020.28 895.962 1019.59C895.237 1019.23 894.512 1018.87 893.765 1018.5C862.85 1003.15 830.778 990.488 798.62 978.015C795.89 976.956 793.16 975.895 790.431 974.834C727.131 950.248 662.937 928.836 598 908.999C597.261 908.773 596.522 908.547 595.761 908.315C573.515 901.519 551.26 894.75 529 887.999C529 887.669 529 887.339 529 886.999C529.956 886.995 530.912 886.992 531.898 886.988C581.985 886.785 632.01 885.967 682.062 884.061C684.447 883.971 686.832 883.881 689.217 883.791C698.499 883.439 707.78 883.084 717.061 882.725C797.763 879.605 878.279 879.025 959 881.999Z" fill="#FDE7E5"/>
<path d="M655.999 1447C662.728 1447.46 668.808 1449.3 675.21 1451.34C676.784 1451.84 676.784 1451.84 678.389 1452.34C680.594 1453.03 682.797 1453.73 685 1454.43C688.382 1455.5 691.766 1456.57 695.151 1457.63C697.296 1458.3 699.44 1458.98 701.585 1459.66C702.599 1459.98 703.614 1460.3 704.659 1460.63C705.594 1460.92 706.529 1461.22 707.492 1461.53C708.316 1461.79 709.141 1462.05 709.99 1462.32C711.999 1463 711.999 1463 713.999 1464C713.42 1470.47 712.611 1476.85 711.51 1483.26C711.215 1485.02 710.919 1486.78 710.625 1488.54C710.471 1489.45 710.318 1490.36 710.16 1491.3C704.944 1522.41 701.152 1553.53 698.999 1585C698.919 1586.14 698.919 1586.14 698.837 1587.31C696.215 1625.15 696.793 1663.09 696.999 1701C697.792 1700.99 698.585 1700.99 699.402 1700.98C722.654 1700.89 748.946 1703.38 769.999 1714C771.084 1714.54 772.169 1715.07 773.288 1715.62C780.122 1719.14 786.144 1723.04 791.999 1728C792.724 1728.56 793.45 1729.12 794.198 1729.69C805.147 1738.54 812.795 1751.08 814.999 1765C816.341 1779.7 812.563 1790.35 803.741 1801.98C800.899 1805.32 797.644 1807.72 793.999 1810.12C793.02 1810.77 793.02 1810.77 792.023 1811.44C786.037 1815.25 779.931 1817.46 772.999 1819C772.237 1819.19 771.475 1819.38 770.69 1819.57C746.327 1823.43 724.044 1814.15 702.999 1803C702.323 1802.65 701.647 1802.3 700.95 1801.94C687.356 1794.89 676.622 1786.03 665.999 1775C665.091 1774.13 664.184 1773.27 663.249 1772.38C655.028 1763.7 653.281 1752.58 650.566 1741.31C649.98 1738.93 649.361 1736.55 648.737 1734.18C645.229 1720.56 643.38 1706.98 641.999 1693C641.899 1692.02 641.8 1691.05 641.698 1690.04C641.061 1683.7 640.465 1677.36 639.999 1671C639.91 1669.85 639.821 1668.71 639.729 1667.53C638.594 1651.4 638.799 1635.22 638.811 1619.06C638.811 1618.28 638.812 1617.5 638.812 1616.69C638.822 1593.74 638.932 1570.88 640.999 1548C641.129 1546.49 641.259 1544.98 641.389 1543.47C649.206 1453.79 649.206 1453.79 655.999 1447Z" fill="#410038"/>
<path d="M388 933C392.557 933.378 395.067 935.309 398.625 938.062C416.695 951.515 437.364 962.05 457 973C458.561 973.871 458.561 973.871 460.153 974.76C467.501 978.857 474.856 982.939 482.217 987.013C484.024 988.013 485.831 989.014 487.637 990.014C501.168 997.505 514.723 1004.95 528.338 1012.28C534.983 1015.88 541.564 1019.57 548.125 1023.31C557.638 1028.74 567.271 1033.91 576.947 1039.03C585.16 1043.38 593.308 1047.82 601.375 1052.44C611.166 1058.04 621.105 1063.34 631.083 1068.6C640.762 1073.71 650.334 1078.96 659.832 1084.4C666.31 1088.09 672.872 1091.58 679.5 1095C687.077 1098.9 694.541 1102.95 701.938 1107.19C711.193 1112.49 720.567 1117.53 730 1122.5C739.202 1127.35 748.351 1132.26 757.375 1137.44C767.535 1143.26 777.872 1148.73 788.237 1154.18C797.976 1159.3 807.616 1164.55 817.16 1170.03C826.399 1175.3 835.813 1180.22 845.227 1185.17C855.229 1190.43 865.128 1195.83 874.934 1201.45C882.298 1205.65 889.789 1209.57 897.327 1213.46C908.051 1219.01 918.53 1224.99 929 1231C928.282 1234.8 927.274 1238.35 926 1242C924.918 1241.48 923.837 1240.96 922.723 1240.42C917.498 1237.91 912.253 1235.45 907 1233C905.555 1232.33 905.555 1232.33 904.082 1231.64C873.289 1216.81 873.289 1216.81 840.125 1210.62C839.014 1210.6 837.903 1210.57 836.758 1210.54C827.504 1211.67 819.676 1216.68 811.875 1221.5C810.379 1222.42 810.379 1222.42 808.852 1223.35C801.308 1228.04 794.168 1233.1 787.18 1238.57C784.523 1240.6 781.905 1242.36 779 1244C778.67 1243.67 778.34 1243.34 778 1243C777.357 1243.95 776.714 1244.89 776.051 1245.87C765.657 1261.1 755.192 1276.14 743 1290C742.366 1290.73 741.732 1291.47 741.078 1292.22C739.974 1293.5 738.864 1294.77 737.746 1296.03C736.415 1297.53 735.097 1299.05 733.785 1300.57C724.02 1311.73 724.02 1311.73 718.996 1312.18C715.274 1311.97 713.412 1311.34 710.5 1308.94C708.519 1305.06 707.85 1302.18 709 1298C712.918 1291.04 718.551 1285.08 723.729 1279.03C734.434 1266.52 744.201 1253.23 754 1240C754.586 1239.21 755.173 1238.42 755.777 1237.61C765.578 1224.36 774.459 1210.73 782.527 1196.36C783.898 1194.16 784.927 1192.54 787 1191C789.262 1190.71 789.262 1190.71 791.688 1190.81C792.496 1190.84 793.304 1190.87 794.137 1190.89C795.059 1190.95 795.059 1190.95 796 1191C796.255 1190.28 796.51 1189.56 796.773 1188.82C798.484 1184.89 800.988 1181.73 803.539 1178.3C805.268 1176.03 805.268 1176.03 805 1173C803.96 1172.44 803.96 1172.44 802.899 1171.87C779.61 1159.38 779.61 1159.38 769.875 1153.94C762.01 1149.54 754.094 1145.24 746.166 1140.96C741.232 1138.29 736.303 1135.62 731.387 1132.93C721.18 1127.33 710.924 1121.84 700.585 1116.49C694.19 1113.17 687.867 1109.74 681.562 1106.25C671.059 1100.45 660.344 1095.12 649.6 1089.78C642.481 1086.25 635.387 1082.68 628.375 1078.94C608.925 1068.58 589.086 1058.89 569.158 1049.49C566.899 1048.42 564.641 1047.36 562.385 1046.28C515.639 1024.06 467.91 1003.32 417.584 990.661C415.373 990.095 413.178 989.498 410.984 988.867C402.943 986.577 394.825 984.872 386.625 983.25C384.965 982.915 384.965 982.915 383.271 982.574C374.188 980.656 374.188 980.656 365 981C362.355 982.702 362.355 982.702 360.5 985.312C359.751 986.237 359.002 987.161 358.23 988.113C357.494 989.066 356.758 990.019 356 991C354.605 992.668 353.21 994.334 351.812 996C350.201 997.995 348.597 999.994 347 1002C346.493 1002.63 345.987 1003.27 345.465 1003.92C313.529 1042.62 313.529 1042.62 294 1088C285.822 1085.6 278.533 1081.91 271 1078C273.047 1071.18 275.789 1064.91 279 1058.56C279.483 1057.6 279.967 1056.65 280.465 1055.66C293.002 1031.15 309.161 1008.64 327.805 988.406C329.661 986.372 331.463 984.307 333.262 982.223C336.988 977.955 340.921 973.931 344.938 969.938C345.602 969.269 346.267 968.601 346.951 967.912C351.469 963.403 356.151 959.149 361 955C361.541 954.532 362.081 954.065 362.638 953.583C369.751 947.44 377.025 941.574 384.516 935.898C386.819 934.225 386.819 934.225 388 933Z" fill="#48DC88"/>
<path d="M1066 639C1066.99 639.495 1066.99 639.495 1068 640C1068.61 641.913 1068.61 641.913 1069.11 644.484C1069.31 645.463 1069.5 646.441 1069.7 647.449C1069.9 648.538 1070.1 649.628 1070.31 650.75C1070.53 651.897 1070.74 653.043 1070.97 654.225C1076.82 686.39 1080.54 719.241 1083.25 751.812C1083.33 752.753 1083.41 753.694 1083.49 754.663C1084.07 762.111 1084.07 769.533 1084 777C1083.04 777.15 1082.08 777.301 1081.09 777.456C1052.94 781.892 1025.94 787.479 999 797C998.148 797.3 997.296 797.6 996.417 797.909C991.923 799.492 991.923 799.492 987.438 801.098C983.327 802.576 979.208 803.841 975 805C974.774 804.197 974.549 803.394 974.317 802.567C964.38 767.351 952.712 732.991 935.73 700.48C934 697 934 697 934 695C935.087 694.948 935.087 694.948 936.196 694.896C939.549 694.724 942.899 694.518 946.25 694.312C947.959 694.232 947.959 694.232 949.703 694.15C960.302 693.458 968.419 689.874 977.75 685.062C982.147 682.816 986.535 681.026 991.188 679.375C1007.35 673.566 1022.84 665.523 1037.69 656.946C1042.81 654 1042.81 654 1045 654C1045.8 653.17 1045.8 653.17 1046.61 652.324C1049.8 649.219 1053.39 647.109 1057.19 644.812C1058.64 643.924 1060.09 643.035 1061.54 642.145C1062.18 641.756 1062.82 641.368 1063.48 640.968C1064.99 640.086 1064.99 640.086 1066 639Z" fill="#879698"/>
<path d="M885 358C888.645 359.458 890.448 360.929 892.256 364.434C895.34 371.862 897.568 379.232 899.375 387.062C899.666 388.297 899.957 389.531 900.257 390.803C903.757 405.801 906.743 420.912 909.626 436.039C909.979 437.891 910.336 439.743 910.693 441.594C915.828 468.419 915.828 468.419 912.473 477.162C912.198 477.881 911.924 478.6 911.641 479.341C911.429 479.889 911.218 480.436 911 481C911.646 480.937 912.292 480.875 912.958 480.81C919.707 480.157 926.455 479.509 933.205 478.864C935.721 478.623 938.237 478.38 940.752 478.136C944.376 477.785 948.001 477.439 951.625 477.094C952.743 476.984 953.861 476.875 955.013 476.762C960.706 476.225 966.282 475.879 972 476C968.719 479.328 965.356 482.509 961.875 485.625C949.448 496.918 937.234 508.659 927 522C926.321 522.812 925.641 523.624 924.941 524.461C920.758 529.37 920.758 529.37 917.826 535.064C916.316 538.845 914.957 541.173 912 544C905.424 546.316 897.93 545.622 891.062 545.562C887.967 545.601 884.872 545.66 881.776 545.72C879.664 545.758 877.552 545.79 875.44 545.814C864.794 545.95 854.23 546.735 843.625 547.625C841.148 547.829 838.671 548.031 836.194 548.23C834.739 548.347 833.284 548.468 831.83 548.593C827.2 548.974 822.641 549.048 818 549C818.07 547.768 818.139 546.535 818.211 545.266C818.659 533.942 818.142 525.03 810.324 516.082C803.12 509.375 794.405 507.069 785 505C785.99 502.03 786.98 499.06 788 496C798.539 494.248 809.09 492.667 819.688 491.312C820.69 491.181 821.692 491.05 822.725 490.915C828.2 490.23 833.483 489.863 839 490C838.758 489.354 838.515 488.708 838.266 488.043C835.996 481.663 834.28 475.306 832.875 468.687C832.638 467.589 832.638 467.589 832.396 466.467C831.427 461.752 830.735 457.043 830.141 452.266C829.326 445.952 828.251 439.724 827.055 433.473C826.879 432.546 826.703 431.62 826.522 430.666C825.793 426.836 825.061 423.007 824.308 419.182C817.016 381.976 817.016 381.976 825.125 369.812C828.185 367.884 830.38 367.252 834.016 367.539C837.662 368.386 839.843 370.067 842 373C846.222 381.403 848.713 390.387 851.125 399.437C851.459 400.658 851.793 401.878 852.137 403.135C853.731 409.016 855.225 414.901 856.555 420.848C857.378 424.507 858.285 428.039 859.527 431.578C861.375 436.861 862.458 442.271 863.562 447.75C863.887 449.341 863.887 449.341 864.218 450.963C869.666 478.001 869.666 478.001 867 486C869.771 485.691 872.542 485.378 875.312 485.062C876.098 484.975 876.884 484.888 877.693 484.799C878.451 484.712 879.208 484.625 879.988 484.535C880.685 484.457 881.381 484.378 882.099 484.297C884.216 484.02 884.216 484.02 887 483C886.402 482.272 885.804 481.543 885.188 480.793C881.908 475.843 881.151 470.045 880 464.312C879.745 463.08 879.49 461.848 879.228 460.578C876.842 448.762 874.962 436.89 873.391 424.94C873.054 422.407 872.688 419.88 872.312 417.352C870.798 406.343 870.764 395.281 870.688 384.187C870.673 382.981 870.673 382.981 870.658 381.75C870.635 379.431 870.632 377.113 870.637 374.793C870.628 374.097 870.618 373.401 870.609 372.683C870.66 367.214 871.995 363.148 875.75 359.125C879.053 357.473 881.351 357.56 885 358Z" fill="#24BF98"/>
<path d="M1085 798C1085.26 822.087 1084.86 845.98 1083 870C1082.91 871.23 1082.82 872.46 1082.72 873.727C1077.11 946.785 1077.11 946.785 1066 969C1064.78 968.589 1063.57 968.178 1062.31 967.754C1043.67 961.552 1024.81 956.307 1005.75 951.562C1004.89 951.348 1004.03 951.133 1003.14 950.911C994.458 948.752 985.794 946.642 976.999 945C976.052 941.289 976.037 938.714 976.924 935C977.143 934.042 977.362 933.084 977.588 932.098C977.826 931.075 978.065 930.053 978.311 929C984.679 899.804 984.445 869.602 980.999 840C980.902 839.169 980.806 838.337 980.708 837.481C980.179 832.981 979.611 828.489 978.999 824C1007.58 815.153 1036.51 807.69 1065.75 801.375C1066.96 801.113 1066.96 801.113 1068.19 800.847C1081.41 798 1081.41 798 1085 798Z" fill="#FDE7E5"/>
<path d="M497 798C511.946 798.538 526.711 799.896 541.562 801.625C542.699 801.756 543.836 801.887 545.007 802.022C594.134 807.695 642.382 815.361 690.671 825.998C737.267 836.255 784.042 845.569 831 854C831 854.33 831 854.66 831 855C830.252 855.012 829.504 855.023 828.733 855.036C774.289 855.913 719.895 857.81 665.489 859.959C662.876 860.062 660.263 860.166 657.65 860.269C645.993 860.728 634.336 861.193 622.68 861.66C621.535 861.706 621.535 861.706 620.368 861.753C605.433 862.351 590.499 862.959 575.569 863.691C569.848 863.969 564.13 864.178 558.402 864.281C556.657 864.319 554.911 864.357 553.166 864.395C550.534 864.448 547.901 864.501 545.269 864.552C536.372 864.73 527.543 864.951 518.68 865.791C514.038 866.153 509.403 866.106 504.75 866.062C503.803 866.058 502.855 866.053 501.879 866.049C499.586 866.037 497.293 866.021 495 866C496.755 856.954 496.755 856.954 497.852 852.691C499.943 844.232 500.322 836.064 500.375 827.375C500.389 826.256 500.402 825.136 500.417 823.983C500.378 816.899 499.437 810.52 497.643 803.667C497 801 497 801 497 798Z" fill="#879597"/>
<path d="M969 964C977.17 964.408 984.701 966.748 992.5 969.078C993.904 969.491 995.307 969.904 996.711 970.316C1000.4 971.399 1004.08 972.491 1007.76 973.585C1011.45 974.68 1015.15 975.768 1018.84 976.855C1024.44 978.507 1030.05 980.162 1035.65 981.822C1041.62 983.591 1047.59 985.354 1053.56 987.109C1054.59 987.411 1054.59 987.411 1055.64 987.719C1057.09 988.146 1058.55 988.573 1060 989C1057.95 997.278 1055.21 1005.14 1052.06 1013.06C1051.58 1014.27 1051.1 1015.49 1050.61 1016.74C1038.66 1046.68 1024.38 1077.06 1005 1103C999.054 1101.46 994.498 1098.28 989.438 1094.94C980.631 1089.24 971.728 1083.75 962.688 1078.44C962.082 1078.08 961.476 1077.72 960.852 1077.36C950.923 1071.53 940.827 1066.12 930.503 1061.02C929.527 1060.53 928.552 1060.04 927.547 1059.54C926.261 1058.91 926.261 1058.91 924.948 1058.26C923 1057 923 1057 922 1054C922.889 1052.08 922.889 1052.08 924.324 1049.89C924.852 1049.06 925.38 1048.24 925.924 1047.39C926.797 1046.05 926.797 1046.05 927.688 1044.69C943.321 1020.07 956.729 993.951 967.251 966.752C968 965 968 965 969 964Z" fill="#879598"/>
<path d="M909 1073C913.747 1073.59 917.472 1075.67 921.562 1078C922.332 1078.43 923.102 1078.86 923.895 1079.31C932.403 1084.14 940.734 1089.27 949.079 1094.38C958.511 1100.14 968.045 1105.71 977.65 1111.18C982.548 1113.97 987.37 1116.78 992 1120C991.425 1124.14 989.173 1126.65 986.625 1129.88C986.182 1130.44 985.738 1131 985.281 1131.59C984.339 1132.78 983.394 1133.98 982.447 1135.17C981.025 1136.97 979.614 1138.77 978.207 1140.58C971.311 1149.42 964.292 1158.15 957.015 1166.68C948.159 1177.07 939.644 1187.68 932 1199C925.884 1197.32 920.585 1194.22 915.062 1191.19C914.001 1190.61 912.94 1190.03 911.847 1189.43C903.838 1185.05 895.894 1180.56 887.963 1176.04C878.896 1170.89 869.707 1165.98 860.489 1161.11C854.51 1157.94 848.682 1154.68 843 1151C849.744 1143.1 856.596 1135.33 863.594 1127.66C866.155 1124.83 868.664 1121.96 871.164 1119.08C873.366 1116.58 875.621 1114.14 877.875 1111.69C882.796 1106.29 887.431 1100.7 892 1095C893.018 1093.74 894.036 1092.48 895.055 1091.22C896.12 1089.9 897.185 1088.57 898.25 1087.25C898.745 1086.64 899.241 1086.02 899.751 1085.39C902.984 1081.36 906.029 1077.23 909 1073Z" fill="#FDE7E5"/>
<path d="M724 583C724 583.33 724 583.66 724 584C711.201 587.191 698.314 589.732 685.354 592.174C680.257 593.138 675.164 594.124 670.07 595.109C652.067 598.586 634.065 602.047 616 605.187C537.973 618.778 456.219 636.957 384.812 672.375C384.184 672.684 383.556 672.993 382.909 673.312C375.966 676.763 375.966 676.763 372 683C370.668 702.592 372.639 721.742 375.633 741.062C375.969 743.749 376.07 746.297 376 749C372.897 749.671 369.792 750.336 366.688 751C365.806 751.191 364.925 751.381 364.018 751.578C363.17 751.758 362.322 751.939 361.449 752.125C360.669 752.292 359.889 752.46 359.085 752.633C357 753 357 753 354 753C349.775 729.604 345.846 706.168 342.125 682.687C341.926 681.442 341.728 680.196 341.523 678.913C340.951 675.322 340.385 671.729 339.82 668.136C339.651 667.073 339.481 666.01 339.307 664.915C338.275 658.29 337.523 651.684 337 645C378.65 627.525 426.709 621.536 471 614C471.917 613.843 472.834 613.686 473.779 613.524C544.532 601.414 615.913 592.978 687.312 585.765C689.291 585.564 691.271 585.363 693.25 585.162C696.913 584.792 700.575 584.428 704.238 584.066C705.316 583.957 706.393 583.848 707.503 583.736C713.034 583.198 718.443 582.886 724 583Z" fill="#48DC88"/>
<path d="M701.019 625.838C706.465 633.261 705.661 642.02 704.503 650.732C701.411 667.574 695.409 681.94 681.562 692.498C666.654 702.493 650.769 705.337 633.16 702.346C615.915 697.475 600.329 684.798 591.199 669.389C586.854 660.728 582.512 650.738 585.628 641.041C590.945 630.099 605.601 625.058 616.249 621.311C639.691 613.624 680.865 607.477 701.019 625.838Z" fill="#420139"/>
<path d="M486 420.999C491.775 423.716 493.653 427.373 496 432.999C497.093 436.27 497.906 439.578 498.688 442.936C498.93 443.959 499.173 444.982 499.423 446.035C503.402 463.453 506.347 481.11 509.484 498.694C510.697 505.449 512.029 512.168 513.495 518.873C514.313 523.937 514.741 528.551 512.188 533.124C511.851 533.745 511.515 534.366 511.168 535.006C510.783 535.664 510.397 536.321 510 536.999C509.532 537.806 509.064 538.613 508.582 539.444C507.006 541.989 505.288 544.349 503.5 546.749C497.405 555.499 496 563.36 497 573.999C497.765 577.435 498.752 580.708 500 583.999C488.97 586.502 477.886 588.568 466.733 590.437C454.124 592.551 441.54 594.758 429 597.249C428.303 597.387 427.606 597.525 426.888 597.668C417.667 599.514 408.498 601.552 399.344 603.702C398.358 603.933 397.373 604.164 396.357 604.403C391.492 605.548 386.631 606.708 381.773 607.886C380.005 608.309 378.237 608.732 376.469 609.155C375.655 609.357 374.841 609.558 374.002 609.766C368.339 611.112 368.339 611.112 365 609.999C378.44 600.141 392.402 591.129 406.515 582.27C412.899 578.262 419.269 574.242 425.5 569.999C426.5 569.318 427.501 568.637 428.531 567.936C433.15 564.312 434.15 561.749 435 555.999C455.498 550.024 476.072 545.199 497 540.999C496.481 540.682 495.961 540.364 495.426 540.038C486.363 533.974 483.573 525.322 481.5 514.999C481.299 514.037 481.098 513.076 480.891 512.086C476.115 488.314 472.056 463.516 471.688 439.249C471.661 438.157 471.661 438.157 471.634 437.044C471.642 431.26 472.803 426.431 476.75 422.061C480.059 420.499 482.38 420.562 486 420.999Z" fill="#25BE97"/>
<path d="M686 1338C689.605 1339.36 692.902 1340.97 696.254 1342.87C697.769 1343.73 697.769 1343.73 699.316 1344.6C700.387 1345.2 701.459 1345.81 702.562 1346.44C712.223 1351.9 712.223 1351.9 721.953 1357.23C722.861 1357.72 723.769 1358.21 724.705 1358.72C726.402 1359.63 728.102 1360.54 729.805 1361.45C738.233 1366 738.233 1366 740 1369C739.587 1372.27 738.979 1374.89 738 1378C737.573 1379.4 737.573 1379.4 737.137 1380.83C736.113 1384.13 735.056 1387.41 734 1390.69C730.242 1402.59 726.865 1414.56 723.688 1426.62C723.481 1427.4 723.275 1428.18 723.062 1428.98C719.991 1440.58 717.379 1452.24 715 1464C708.345 1462.62 701.93 1460.83 695.453 1458.78C694.479 1458.47 693.505 1458.17 692.501 1457.85C689.416 1456.88 686.333 1455.91 683.25 1454.94C680.153 1453.96 677.055 1452.99 673.956 1452.01C672.036 1451.41 670.116 1450.8 668.197 1450.2C667.325 1449.92 666.454 1449.65 665.556 1449.37C664.414 1449.01 664.414 1449.01 663.249 1448.64C660.85 1447.96 658.45 1447.46 656 1447C657.377 1436.34 659.753 1426.04 662.375 1415.62C662.589 1414.77 662.804 1413.91 663.025 1413.03C666.4 1399.59 670.159 1386.3 674.25 1373.06C674.494 1372.27 674.738 1371.48 674.989 1370.67C678.393 1359.68 682.104 1348.82 686 1338Z" fill="#751661"/>
<path d="M250.001 1053C250.331 1053 250.661 1053 251.001 1053C250.979 1053.78 250.957 1054.56 250.934 1055.36C249.888 1072.59 249.888 1072.59 255.876 1088.06C257.27 1089.5 258.673 1090.94 260.154 1092.28C262.444 1094.41 264.589 1096.66 266.751 1098.91C270.071 1102.34 273.407 1105.75 276.806 1109.11C277.517 1109.81 278.229 1110.51 278.962 1111.24C280.905 1112.92 282.656 1113.98 285.001 1115C285.001 1115.66 285.001 1116.32 285.001 1117C284.193 1117.15 283.385 1117.29 282.552 1117.44C248.573 1123.61 216.814 1133.45 185.001 1147C184.437 1145.96 183.872 1144.92 183.29 1143.84C181.314 1140.39 179.016 1137.49 176.376 1134.5C170.589 1127.75 165.766 1120.49 161.001 1113C160.563 1112.32 160.124 1111.65 159.672 1110.95C158.369 1108.94 157.088 1106.91 155.814 1104.88C155.415 1104.26 155.016 1103.64 154.605 1103.01C153.025 1100.43 151.995 1098.55 152.028 1095.49C153.001 1093 153.001 1093 155.573 1091.34C156.721 1090.85 157.869 1090.37 159.052 1089.87C159.686 1089.6 160.319 1089.33 160.972 1089.05C163.077 1088.16 165.194 1087.3 167.314 1086.44C168.79 1085.83 170.266 1085.21 171.742 1084.6C182.784 1080.07 193.992 1076.07 205.314 1072.31C206.441 1071.94 206.441 1071.94 207.591 1071.56C226.524 1065.3 226.524 1065.3 234.001 1064C234.496 1064.49 234.496 1064.49 235.001 1065C237.03 1064.75 239.051 1064.42 241.064 1064.06C242.168 1063.87 243.273 1063.67 244.411 1063.47C245.266 1063.32 246.121 1063.16 247.001 1063C247.465 1061.36 247.465 1061.36 247.939 1059.69C248.585 1057.45 249.264 1055.21 250.001 1053Z" fill="#44013A"/>
<path d="M1143 539C1145.84 540.422 1146.06 542.141 1147.24 545.066C1147.88 546.632 1147.88 546.632 1148.53 548.229C1148.98 549.329 1149.42 550.429 1149.87 551.562C1152.44 557.908 1155 564.185 1158.14 570.272C1159.95 573.908 1161.27 577.742 1162.68 581.547C1163.58 583.892 1164.53 586.215 1165.53 588.516C1166.02 589.645 1166.5 590.774 1167 591.938C1167.45 592.957 1167.91 593.977 1168.37 595.027C1169.23 599.088 1168.23 600.551 1166 604C1164.32 606.181 1162.63 608.249 1160.81 610.312C1160.3 610.899 1159.79 611.486 1159.27 612.09C1154.72 617.266 1150.07 622.335 1145.37 627.375C1144.68 628.131 1143.98 628.887 1143.26 629.665C1142.27 630.709 1142.27 630.709 1141.27 631.773C1140.69 632.397 1140.11 633.02 1139.5 633.662C1138 635 1138 635 1136 635C1136 635.66 1136 636.32 1136 637C1135.34 637 1134.68 637 1134 637C1134 637.66 1134 638.32 1134 639C1132.6 640.375 1132.6 640.375 1130.62 642C1127.28 644.824 1124.22 647.787 1121.19 650.938C1108.48 663.74 1108.48 663.74 1102.17 664.211C1101.46 664.141 1100.74 664.072 1100 664C1093.61 648.218 1091.72 638.062 1097 621.688C1100.03 612.829 1100.03 612.829 1100.82 603.609C1100.41 591.953 1104.73 586.243 1112.48 577.84C1113.08 577.203 1113.68 576.566 1114.3 575.91C1115.96 574.043 1117.36 572.13 1118.76 570.066C1121 567 1121 567 1124 566C1125.49 564.261 1125.49 564.261 1126.94 562C1127.53 561.116 1128.13 560.231 1128.75 559.32C1129.09 558.809 1129.44 558.297 1129.79 557.771C1132.29 554.105 1134.87 550.496 1137.44 546.875C1138.5 545.373 1139.56 543.87 1140.62 542.367C1141.41 541.245 1142.21 540.122 1143 539Z" fill="#761662"/>
<path d="M526.001 638.998C530.896 641.355 533.317 644.326 536.001 648.998C539.628 659.879 535.917 671.864 531.544 681.943C524.429 696.03 513.279 706.741 498.493 712.322C480.895 717.647 463.603 715.828 447.251 707.311C433.226 699.588 421.051 688.593 416.001 672.998C415.043 667.664 416.093 663.568 419.001 658.998C420.689 656.623 420.689 656.623 423.001 654.998C427.151 654.537 429.756 654.524 433.626 655.998C435.784 657.815 437.067 659.355 438.689 661.623C446.523 672.398 458.778 681.172 472.001 683.998C480.332 684.678 486.696 684.108 494.001 679.998C494.722 679.66 495.442 679.323 496.185 678.975C498.581 677.686 498.903 676.469 500.001 673.998C500.641 673.173 501.28 672.348 501.939 671.498C506.009 665.506 506.736 657.559 507.939 650.561C508.729 646.456 509.937 643.97 513.001 640.998C517.265 638.156 520.997 638.374 526.001 638.998Z" fill="#410139"/>
<path d="M840 595.999C844.845 598.421 847.322 601.336 850 605.999C853.495 616.483 849.293 630.705 844.75 640.436C836.685 654.894 825.73 662.437 810.625 668.311C796.171 671.053 781.849 667.776 769 660.999C767.569 660.278 767.569 660.278 766.11 659.542C754.43 653.259 741.347 643.038 737 629.999C736.372 625.208 736.312 622.021 739.063 617.936C742.775 615.488 744.604 615.598 749 615.999C752.254 617.468 752.254 617.468 755.563 619.499C756.791 620.235 758.018 620.97 759.246 621.706C759.868 622.086 760.489 622.465 761.129 622.857C781.247 635.478 781.247 635.478 804.352 637.659C810.117 635.956 813.737 631.89 817 626.999C819.754 621.674 821.312 615.979 823 610.249C825.737 601.137 829.213 594.361 840 595.999Z" fill="#41023A"/>
<path d="M1174 483C1174.66 483 1175.32 483 1176 483C1176.26 483.55 1176.52 484.1 1176.79 484.667C1183.65 499.173 1190.73 513.562 1197.93 527.902C1198.46 528.955 1198.99 530.008 1199.53 531.093C1200.45 532.906 1201.37 534.715 1202.3 536.52C1205 541.794 1205 541.794 1205 544C1205.66 544 1206.32 544 1207 544C1206.55 549.321 1203.63 552.984 1200.69 557.25C1200.15 558.039 1199.62 558.828 1199.06 559.642C1197.39 562.102 1195.69 564.552 1194 567C1193.48 567.75 1192.97 568.5 1192.44 569.273C1187.15 576.937 1181.74 584.48 1176 591.812C1175.33 592.666 1175.33 592.666 1174.65 593.536C1172.26 596.546 1169.78 599.344 1167 602C1167.2 601.272 1167.4 600.544 1167.61 599.793C1168.06 596.577 1167.6 595.229 1166.27 592.305C1165.88 591.43 1165.49 590.554 1165.09 589.653C1164.67 588.736 1164.25 587.819 1163.81 586.875C1162.97 584.975 1162.12 583.074 1161.28 581.172C1160.67 579.817 1160.67 579.817 1160.06 578.436C1158.87 575.703 1157.84 572.944 1156.88 570.125C1155.13 565.086 1152.87 560.316 1150.58 555.508C1148.16 550.412 1146.02 545.263 1144 540C1138.56 546.93 1138.56 546.93 1133 554C1133 550.296 1133.99 549.186 1136.08 546.16C1136.74 545.19 1137.4 544.22 1138.08 543.22C1139.15 541.657 1139.15 541.657 1140.25 540.062C1152.64 521.747 1164.1 502.794 1174 483ZM1131 554C1131.33 554.66 1131.66 555.32 1132 556C1129.36 559.63 1126.72 563.26 1124 567C1123.34 566.67 1122.68 566.34 1122 566C1124.97 562.04 1127.94 558.08 1131 554Z" fill="#430039"/>
<path d="M885 358C888.645 359.458 890.448 360.929 892.256 364.434C895.34 371.862 897.568 379.232 899.375 387.062C899.666 388.297 899.957 389.531 900.257 390.803C903.757 405.801 906.743 420.912 909.626 436.039C909.979 437.891 910.336 439.743 910.694 441.594C916.384 471.317 916.384 471.317 911 480C906.953 484.21 903.717 486.739 897.75 487.312C892.048 486.837 888.691 484.972 884.981 480.645C881.877 475.742 881.125 469.917 880 464.312C879.745 463.08 879.49 461.848 879.228 460.578C876.842 448.762 874.962 436.89 873.391 424.94C873.054 422.407 872.688 419.88 872.313 417.352C870.798 406.343 870.764 395.281 870.688 384.187C870.673 382.981 870.673 382.981 870.659 381.75C870.635 379.431 870.633 377.113 870.637 374.793C870.628 374.097 870.619 373.401 870.609 372.683C870.66 367.214 871.996 363.148 875.75 359.125C879.053 357.473 881.351 357.56 885 358Z" fill="#43023A"/>
<path d="M834.016 367.539C837.662 368.385 839.844 370.067 842.001 372.999C846.223 381.403 848.714 390.387 851.126 399.437C851.459 400.657 851.793 401.877 852.137 403.134C853.732 409.015 855.226 414.9 856.555 420.847C857.379 424.507 858.286 428.039 859.528 431.578C861.376 436.861 862.458 442.27 863.563 447.749C863.779 448.81 863.995 449.87 864.218 450.963C870.077 480.038 870.077 480.038 865.876 487.374C862.765 491.749 859.093 494.302 854.001 495.999C849.231 496.556 846.191 496.646 842.251 493.749C832.945 484.613 831.691 464.721 830.141 452.265C829.327 445.952 828.251 439.724 827.055 433.472C826.879 432.546 826.704 431.62 826.522 430.666C825.793 426.836 825.061 423.007 824.309 419.181C817.016 381.976 817.016 381.976 825.126 369.812C828.185 367.883 830.381 367.252 834.016 367.539Z" fill="#43023A"/>
<path d="M485.998 420.999C491.773 423.716 493.651 427.373 495.998 432.999C497.091 436.27 497.904 439.578 498.686 442.936C498.928 443.959 499.171 444.982 499.421 446.035C503.4 463.453 506.345 481.11 509.482 498.694C510.695 505.449 512.028 512.168 513.493 518.873C514.647 526.02 514.064 531.06 509.998 536.999C506.43 540.261 502.877 540.532 498.205 540.338C493.948 539.683 491.271 537.706 488.721 534.286C485.792 529.705 483.816 525.309 482.561 519.999C482.263 518.778 482.263 518.778 481.96 517.532C479.733 507.762 478.298 497.84 476.811 487.936C476.684 487.095 476.557 486.254 476.427 485.388C471.619 453.14 471.619 453.14 471.686 439.249C471.669 438.534 471.653 437.82 471.637 437.085C471.631 431.286 472.791 426.442 476.748 422.061C480.057 420.499 482.378 420.562 485.998 420.999Z" fill="#43023A"/>
<path d="M759 499C759.99 500.32 760.98 501.64 762 503C762.866 503.846 763.732 504.691 764.625 505.562C767 508 767 508 768 511C767.553 511.329 767.105 511.657 766.645 511.996C759.496 517.62 755.243 524.952 754 534C753.393 540.983 754.723 546.975 756 554C736.86 555.65 717.72 557.3 698 559C697.67 555.04 697.34 551.08 697 547C694.193 536.265 688.086 528.282 678.688 522.5C676.101 521.038 673.825 519.942 671 519C672.287 515.032 673.427 513.166 677 511C680.023 510.27 680.023 510.27 683.375 509.812C684.476 509.654 685.577 509.495 686.711 509.332C687.796 509.222 688.882 509.113 690 509C691.597 508.826 691.597 508.826 693.227 508.648C696 509 696 509 697.688 511.082C698.121 511.983 698.554 512.884 699 513.812C700.838 517.189 701.774 518.837 704.938 521.125C709.866 522.533 713.442 522.599 718.25 520.75C721.377 518.987 721.377 518.987 724 515C724.66 511.37 725.32 507.74 726 504C736.89 502.35 747.78 500.7 759 499Z" fill="#24BE98"/>
<path d="M250 1053C250.33 1053 250.66 1053 251 1053C250.978 1053.78 250.956 1054.56 250.933 1055.36C249.886 1072.59 249.886 1072.59 255.875 1088.06C257.269 1089.5 258.671 1090.94 260.152 1092.28C262.443 1094.41 264.587 1096.66 266.75 1098.91C270.07 1102.34 273.405 1105.75 276.805 1109.11C277.516 1109.81 278.227 1110.51 278.96 1111.24C280.903 1112.92 282.655 1113.98 285 1115C285 1115.66 285 1116.32 285 1117C283.709 1117.24 283.709 1117.24 282.392 1117.49C279.12 1118.1 275.85 1118.72 272.579 1119.34C271.179 1119.61 269.778 1119.87 268.376 1120.13C259.47 1121.8 250.787 1123.77 242.094 1126.34C239.101 1126.98 237.755 1127.21 235 1126C233.28 1124.71 233.28 1124.71 231.574 1123.09C230.626 1122.19 230.626 1122.19 229.658 1121.28C229.008 1120.65 228.358 1120.02 227.688 1119.38C226.729 1118.47 226.729 1118.47 225.752 1117.54C223.822 1115.71 221.91 1113.86 220 1112C219.404 1111.44 218.808 1110.87 218.195 1110.29C213.646 1105.91 209.954 1101.15 206.312 1096C205.758 1095.23 205.203 1094.46 204.631 1093.67C196 1081.6 196 1081.6 196 1077C199.821 1075.75 203.644 1074.5 207.469 1073.26C208.766 1072.84 210.062 1072.42 211.358 1072C223.517 1068.02 223.517 1068.02 229.348 1066.84C230.553 1066.56 231.758 1066.28 233 1066C233.33 1065.34 233.66 1064.68 234 1064C234.495 1064.49 234.495 1064.49 235 1065C237.029 1064.75 239.05 1064.42 241.062 1064.06C242.72 1063.77 242.72 1063.77 244.41 1063.47C245.265 1063.32 246.119 1063.16 247 1063C247.309 1061.91 247.619 1060.81 247.938 1059.69C248.583 1057.45 249.262 1055.21 250 1053Z" fill="#761662"/>
<path d="M793.063 1190.63C796.003 1191.19 797.269 1192.64 799 1195C800.987 1198.97 799.623 1204.03 798.328 1208.13C797.444 1210.32 796.472 1212.44 795.438 1214.56C795.052 1215.36 794.666 1216.17 794.269 1216.99C788.598 1228.32 781.23 1238.63 774 1249C773.422 1249.83 772.844 1250.67 772.249 1251.53C761.383 1267.2 750.08 1282.48 737.195 1296.58C735.731 1298.19 734.288 1299.83 732.867 1301.48C724.071 1311.72 724.071 1311.72 718.992 1312.18C715.273 1311.97 713.411 1311.34 710.5 1308.94C708.519 1305.06 707.85 1302.18 709 1298C712.918 1291.04 718.551 1285.08 723.729 1279.03C734.434 1266.52 744.201 1253.22 754 1240C754.586 1239.21 755.173 1238.42 755.777 1237.6C765.578 1224.35 774.46 1210.73 782.527 1196.35C785.489 1191.62 787.226 1190.43 793.063 1190.63Z" fill="#41023A"/>
<path d="M442 812.001C442.99 812.001 443.98 812.001 445 812.001C445 812.661 445 813.321 445 814.001C445.66 813.671 446.32 813.341 447 813.001C454.642 812.007 462.305 811.864 470 812.001C473.939 826.18 474.944 842.721 471 857.001C468.658 860.028 466.357 860.676 462.695 861.536C461.643 861.787 460.59 862.038 459.506 862.297C458.39 862.55 457.274 862.803 456.125 863.063C454.992 863.326 453.859 863.59 452.692 863.861C432.044 868.58 432.044 868.58 422 868.001C420.149 866.15 420.191 863.174 419.73 860.684C419.481 859.356 419.231 858.028 418.981 856.699C418.786 855.654 418.786 855.654 418.588 854.587C416.597 843.905 414.534 833.29 411.664 822.802C411 820.001 411 820.001 411 816.001C414.729 815.178 418.369 814.747 422.176 814.466C423.911 814.335 423.911 814.335 425.682 814.202C426.88 814.115 428.078 814.028 429.312 813.938C430.53 813.847 431.748 813.757 433.002 813.663C436.001 813.439 439 813.219 442 813.001C442 812.671 442 812.341 442 812.001Z" fill="#761662"/>
<path d="M1001 468C1003.09 470.563 1003.96 471.782 1004.5 475.125C1003.37 483.889 997.567 491.515 992.687 498.688C992.088 499.58 991.488 500.472 990.87 501.391C986.883 507.299 982.807 513.142 978.707 518.973C972.312 528.077 966.052 537.069 961 547C960.551 547.849 960.103 548.699 959.64 549.574C953.759 562.082 957.635 577.768 959.437 590.938C959.671 592.693 959.903 594.449 960.135 596.205C960.91 602.055 961.685 607.904 962.562 613.74C963.163 618.216 963.223 622.615 963.25 627.125C963.27 628.005 963.291 628.886 963.312 629.793C963.342 634.64 963.316 638.162 960 642C958.685 642.702 957.353 643.374 956 644C955.668 642.792 955.668 642.792 955.329 641.56C954.487 638.5 953.644 635.439 952.802 632.379C952.266 630.432 951.73 628.486 951.195 626.539C949.143 619.091 947.055 611.654 944.924 604.229C944.098 601.344 943.282 598.456 942.472 595.566C940.218 587.552 937.934 579.57 935.25 571.688C930.086 556.48 930.086 556.48 931 551C938.319 537.57 952.843 525.995 963.565 515.305C965.764 513.111 967.958 510.911 970.152 508.711C971.575 507.289 972.998 505.867 974.422 504.445C975.065 503.8 975.707 503.155 976.37 502.491C981.614 497.273 987.005 492.241 992.933 487.805C996.954 484.706 999.609 482.582 1000.86 477.535C1001.1 474.319 1001.17 471.219 1001 468Z" fill="#48DB88"/>
<path d="M651 515.999C651 516.329 651 516.659 651 516.999C649.886 517.225 648.772 517.452 647.625 517.686C638.51 520.025 631.262 524.039 626 531.999C621.638 540.867 620.564 549.976 623.5 559.436C623.778 560.239 624.057 561.042 624.344 561.87C625 563.999 625 563.999 625 566.999C618.559 567.859 612.118 568.712 605.676 569.562C603.486 569.852 601.296 570.143 599.106 570.435C595.954 570.856 592.801 571.271 589.648 571.686C588.673 571.817 587.698 571.949 586.693 572.084C582.094 572.684 577.651 573.162 573 572.999C573.058 571.815 573.116 570.632 573.176 569.413C573.495 560.09 573.494 552.935 568 544.999C567.597 544.362 567.193 543.725 566.777 543.069C565.889 541.687 564.951 540.338 564 538.999C564.531 538.719 565.062 538.439 565.609 538.151C566.316 537.75 567.022 537.349 567.75 536.936C568.446 536.553 569.142 536.17 569.859 535.776C572.317 534.038 572.317 534.038 573.281 530.51C574.867 527.581 575.864 527.045 579.079 525.95C583.292 525.104 587.495 524.457 591.75 523.874C593.315 523.637 594.88 523.397 596.445 523.154C599.677 522.658 602.912 522.178 606.149 521.711C610.826 521.033 615.489 520.283 620.152 519.514C622.997 519.049 625.842 518.586 628.688 518.124C629.357 518.014 630.027 517.904 630.716 517.791C637.534 516.685 644.087 515.703 651 515.999Z" fill="#25BE98"/>
<path d="M444 814C439.438 814.337 434.875 814.669 430.312 815C429.019 815.096 427.725 815.191 426.393 815.29C424.522 815.425 424.522 815.425 422.613 815.563C421.466 815.647 420.32 815.731 419.138 815.817C416.415 815.976 413.727 816.036 411 816C411.191 816.764 411.382 817.527 411.579 818.313C415.602 834.461 419.276 850.573 422 867C428.515 867.215 434.534 866.415 440.938 865.25C441.938 865.073 442.938 864.895 443.969 864.712C452.725 863.124 461.373 861.178 470 859C467.033 862.423 464.99 863.593 460.547 864.379C459.464 864.577 458.382 864.774 457.266 864.978C455.526 865.268 455.526 865.268 453.75 865.563C451.953 865.878 451.953 865.878 450.121 866.199C438.461 868.192 426.76 869.741 415 871C413.213 871.2 413.213 871.2 411.391 871.403C400.969 872.388 390.457 872.092 380 872C379.925 870.691 379.85 869.381 379.773 868.032C379.059 857.529 377.702 847.469 375.125 837.25C374.881 836.277 374.636 835.303 374.384 834.299C372.898 828.671 371.051 823.342 368.765 817.988C368 816 368 816 368 814C369.566 814.016 369.566 814.016 371.164 814.032C376.109 814.077 381.055 814.105 386 814.125C386.897 814.129 387.794 814.133 388.718 814.137C402.634 814.179 416.429 813.708 430.297 812.536C431.524 812.439 432.751 812.342 434.016 812.243C435.081 812.148 436.146 812.054 437.243 811.957C440.112 812.002 441.592 812.497 444 814Z" fill="#45013B"/>
<path d="M657.188 642.689C658.144 642.683 659.1 642.678 660.085 642.672C665.714 642.73 670.598 643.408 676 645.001C675.522 654.876 672.227 662.737 664.902 669.532C657.15 675.518 648.661 677.029 639.039 676.301C627.919 674.668 618.815 666.41 612 658.001C610.565 655.709 609.281 653.386 608 651.001C624.346 646.06 640.05 642.772 657.188 642.689Z" fill="#D73011"/>
<path d="M1175 484C1177.63 487.247 1179.41 490.628 1181.25 494.375C1181.95 495.789 1182.64 497.203 1183.34 498.617C1183.95 499.85 1183.95 499.85 1184.57 501.108C1187.27 506.576 1190.01 512.028 1192.74 517.482C1193.73 519.468 1194.73 521.453 1195.72 523.439C1196.03 524.07 1196.35 524.701 1196.68 525.352C1197.58 527.165 1198.49 528.979 1199.39 530.793C1200.37 532.737 1201.35 534.678 1202.34 536.613C1205 541.799 1205 541.799 1205 544C1205.66 544 1206.32 544 1207 544C1206.44 547.726 1205.46 550.257 1203.38 553.391C1202.86 554.182 1202.33 554.974 1201.79 555.789C1201.24 556.601 1200.69 557.413 1200.12 558.25C1199.58 559.078 1199.04 559.905 1198.48 560.758C1197.95 561.544 1197.43 562.33 1196.88 563.141C1196.4 563.858 1195.92 564.575 1195.43 565.313C1194 567 1194 567 1191 568C1190.68 567.319 1190.37 566.639 1190.04 565.938C1189.08 563.847 1188.11 561.758 1187.13 559.669C1185.99 557.194 1184.85 554.714 1183.72 552.229C1180.52 545.223 1177.17 538.361 1173.51 531.578C1161.91 509.693 1161.91 509.693 1163.69 502.703C1165.17 499.229 1167.18 496.452 1169.68 493.645C1172.02 490.726 1173.42 487.38 1175 484Z" fill="#761662"/>
<path d="M169 1088C171.616 1091.17 173.924 1094.36 176.063 1097.88C182.706 1108.41 190.164 1118.34 198.384 1127.7C200.952 1130.64 203.099 1133.59 205 1137C202.095 1138.4 199.175 1139.77 196.25 1141.12C195.425 1141.52 194.6 1141.92 193.75 1142.33C192.951 1142.7 192.152 1143.07 191.328 1143.45C190.595 1143.79 189.862 1144.14 189.107 1144.49C187 1145 187 1145 184.88 1144.27C181.977 1142.31 180.034 1139.63 177.938 1136.88C177.461 1136.26 176.984 1135.64 176.493 1135C169.068 1125.27 162.204 1115.15 155.75 1104.75C155.355 1104.13 154.96 1103.51 154.552 1102.87C153.063 1100.41 151.998 1098.59 152.008 1095.68C153.38 1093.36 154.551 1093.13 157.125 1092.44C161.261 1091.23 165.069 1089.76 169 1088Z" fill="#761662"/>
<path d="M660 1426C660.33 1426.66 660.66 1427.32 661 1428C663.056 1428.7 663.056 1428.7 665.68 1429.23C674.595 1431.34 683.379 1433.87 692.167 1436.45C694.154 1437.03 696.144 1437.6 698.137 1438.16C701.039 1438.97 703.93 1439.82 706.82 1440.68C707.713 1440.92 708.606 1441.16 709.525 1441.42C715.605 1443.27 715.605 1443.27 717.603 1446.98C718.102 1450.77 717.535 1453.67 716.625 1457.38C716.329 1458.62 716.032 1459.87 715.727 1461.15C715.487 1462.09 715.247 1463.03 715 1464C708.345 1462.62 701.93 1460.83 695.453 1458.78C694.479 1458.47 693.505 1458.17 692.501 1457.85C689.416 1456.88 686.333 1455.91 683.25 1454.94C680.153 1453.96 677.055 1452.99 673.956 1452.01C672.036 1451.41 670.116 1450.8 668.197 1450.2C667.325 1449.92 666.454 1449.65 665.556 1449.37C664.794 1449.13 664.033 1448.89 663.249 1448.64C660.85 1447.96 658.45 1447.46 656 1447C657.018 1439.9 658.099 1432.92 660 1426Z" fill="#751661"/>
<path d="M666.999 1400C667.999 1404 667.999 1404 668.179 1405.97C668.862 1408.25 668.862 1408.25 671.445 1409.44C672.517 1409.88 673.59 1410.32 674.695 1410.77C675.879 1411.26 677.063 1411.76 678.283 1412.26C679.564 1412.78 680.844 1413.3 682.124 1413.81C684.059 1414.61 685.991 1415.42 687.923 1416.22C689.195 1416.75 690.467 1417.28 691.741 1417.81C698.606 1420.65 705.316 1423.76 711.999 1427C712.868 1427.42 713.737 1427.84 714.632 1428.27C719.823 1430.82 719.823 1430.82 720.999 1432C720.834 1437.82 719.524 1443.41 717.999 1449C717.774 1448.38 717.548 1447.76 717.316 1447.12C715.549 1444.28 714.122 1444.02 710.939 1443.09C709.884 1442.78 708.83 1442.46 707.743 1442.13C706.601 1441.81 705.458 1441.48 704.281 1441.14C703.112 1440.8 701.943 1440.45 700.739 1440.09C696.996 1438.98 693.248 1437.9 689.499 1436.81C685.752 1435.71 682.006 1434.61 678.26 1433.5C675.926 1432.81 673.591 1432.13 671.255 1431.45C670.201 1431.14 669.146 1430.84 668.06 1430.52C667.129 1430.25 666.198 1429.98 665.238 1429.7C662.999 1429 662.999 1429 660.999 1428C660.671 1421.86 661.882 1416.55 663.437 1410.62C663.667 1409.71 663.897 1408.8 664.134 1407.86C665.854 1401.15 665.854 1401.15 666.999 1400Z" fill="#43003A"/>
<path d="M370 816C375.94 816 381.88 816 388 816C389.895 820.421 391.399 823.96 392.535 828.477C392.786 829.471 393.038 830.465 393.296 831.49C393.549 832.524 393.802 833.559 394.062 834.625C394.326 835.695 394.589 836.765 394.86 837.868C397.557 849.026 399.307 859.47 399 871C393.06 871 387.12 871 381 871C380.78 869.144 380.78 869.144 380.555 867.25C378.64 852.131 375.784 837.003 370.816 822.559C370 820 370 820 370 816Z" fill="#761662"/>
<path d="M544.312 557.25C547.09 559.058 548.344 560.162 550 563C550.328 566.199 550.328 566.199 550.25 569.687C550.235 570.846 550.219 572.005 550.203 573.199C550 576 550 576 549 577C545.798 577.671 542.549 578.087 539.312 578.562C538.413 578.701 537.514 578.839 536.588 578.982C527.508 580.334 527.508 580.334 523 580C520.088 577.67 519.994 575.954 519.5 572.25C519.723 567.272 521.668 563.646 525 560C530.998 555.446 537.239 554.58 544.312 557.25Z" fill="#751661"/>
<path d="M661.117 541.692C666.026 543.906 669.209 546.378 672 551.001C672.554 554.818 672.749 558.502 671 562.001C668.086 562.483 665.247 562.845 662.312 563.126C661.509 563.212 660.705 563.299 659.877 563.388C651.174 564.284 651.174 564.284 647 564.001C643.612 560.496 643.272 556.059 642.938 551.372C643.024 548.087 643.795 546.426 646 544.001C650.567 540.217 655.625 539.899 661.117 541.692Z" fill="#751661"/>
<path d="M786.376 530.124C790.284 531.067 792.144 532.226 795.001 534.999C796.597 538.19 796.387 541.527 796.001 544.999C794.501 548.499 794.501 548.499 793.001 550.999C791.065 551.107 789.127 551.185 787.189 551.249C785.57 551.319 785.57 551.319 783.919 551.39C781.001 550.999 781.001 550.999 779.177 549.171C776.928 545.017 776.679 541.675 777.001 536.999C779.142 532.413 781.022 529.926 786.376 530.124Z" fill="#741561"/>
<path d="M419.001 855C419.331 855 419.661 855 420.001 855C420.661 858.96 421.321 862.92 422.001 867C428.516 867.215 434.535 866.414 440.939 865.25C442.439 864.984 442.439 864.984 443.97 864.712C452.727 863.123 461.374 861.177 470.001 859C466.984 862.504 464.868 863.614 460.337 864.414C459.223 864.617 458.108 864.82 456.959 865.029C455.777 865.225 454.595 865.422 453.376 865.625C452.172 865.837 450.969 866.048 449.729 866.266C440.189 867.903 430.642 869.156 421.001 870C419.738 864.925 418.731 860.272 419.001 855Z" fill="#580849"/>
<path d="M1133 636C1133.99 636.33 1134.98 636.66 1136 637C1135.34 637 1134.68 637 1134 637C1134 637.66 1134 638.32 1134 639C1132.6 640.375 1132.6 640.375 1130.62 642C1126.17 645.744 1122.24 649.883 1118.3 654.156C1117.54 654.765 1116.78 655.373 1116 656C1113.86 655.615 1113.86 655.615 1112 655C1112.63 654.456 1112.63 654.456 1113.28 653.902C1115.23 652.229 1117.18 650.552 1119.12 648.875C1119.79 648.305 1120.46 647.735 1121.14 647.148C1125.27 643.585 1129.19 639.905 1133 636Z" fill="#570849"/>
<path d="M534 888C545.22 888 556.44 888 568 888C568 888.33 568 888.66 568 889C555.625 889.495 555.625 889.495 543 890C543.33 890.66 543.66 891.32 544 892C542.519 891.719 541.04 891.425 539.562 891.125C538.739 890.963 537.915 890.8 537.066 890.633C536.384 890.424 535.703 890.215 535 890C534.67 889.34 534.34 888.68 534 888Z" fill="#F9E2E2"/>
<path d="M1001 468C1004.16 471.783 1004.36 474.057 1004 479C1002.87 482.399 1001.87 483.053 999 485C998.34 484.67 997.68 484.34 997 484C997.481 483.643 997.962 483.286 998.457 482.918C1000.68 480.149 1000.51 477.818 1000.69 474.312C1000.79 472.543 1000.79 472.543 1000.89 470.738C1000.92 469.835 1000.96 468.931 1001 468Z" fill="#45BC7E"/>
<path d="M276 1065C276.998 1068.22 277.018 1070.84 276.688 1074.19C276.609 1075.07 276.53 1075.95 276.449 1076.86C276.301 1077.56 276.153 1078.27 276 1079C275.01 1079.49 275.01 1079.49 274 1080C273.01 1079.34 272.02 1078.68 271 1078C271.454 1076.58 271.914 1075.17 272.375 1073.75C272.758 1072.57 272.758 1072.57 273.148 1071.36C273.952 1069.13 274.897 1067.09 276 1065Z" fill="#2BAE8C"/>
<path d="M376 602C376.66 602.33 377.32 602.66 378 603C376.68 604.32 375.36 605.64 374 607C374.66 607.66 375.32 608.32 376 609C370.555 609.99 370.555 609.99 365 611C368.434 607.364 371.797 604.639 376 602Z" fill="#28A58B"/>
<path d="M368 814C375.066 813.862 381.974 814.252 389 815C388.67 815.66 388.34 816.32 388 817C382.06 816.67 376.12 816.34 370 816C369.67 816.66 369.34 817.32 369 818C368.67 816.68 368.34 815.36 368 814Z" fill="#5C0A4C"/>
<path d="M389 956C393.108 957.187 394.894 957.894 398 961C394.04 960.67 390.08 960.34 386 960C386.99 958.68 387.98 957.36 389 956Z" fill="#2CC795"/>
<path d="M724 583C724 583.33 724 583.66 724 584C722.064 584.504 720.126 585.003 718.188 585.5C717.109 585.778 716.03 586.056 714.918 586.343C712 587 712 587 709 587C709 586.34 709 585.68 709 585C707.68 584.67 706.36 584.34 705 584C711.362 583.345 717.604 582.879 724 583Z" fill="#41AF7C"/>
<path d="M1153 616C1153 620.138 1151.28 621.209 1148.5 624.188C1147.66 625.089 1146.83 625.99 1145.97 626.918C1145.32 627.605 1144.67 628.292 1144 629C1143.67 628.01 1143.34 627.02 1143 626C1146.3 622.7 1149.6 619.4 1153 616Z" fill="#520842"/>
<path d="M534 888C536.97 888 539.94 888 543 888C543.33 889.32 543.66 890.64 544 892C542.519 891.719 541.04 891.425 539.562 891.125C538.739 890.963 537.915 890.8 537.066 890.633C536.384 890.424 535.703 890.215 535 890C534.67 889.34 534.34 888.68 534 888Z" fill="#E3C7CD"/>
<path d="M1112 657C1112 657.66 1112 658.32 1112 659C1109.75 661.188 1109.75 661.188 1107 663C1104.69 662.75 1104.69 662.75 1103 662C1108.62 657 1108.62 657 1112 657Z" fill="#580745"/>
<path d="M778 1242C778.66 1242.99 779.32 1243.98 780 1245C778.02 1246.98 776.04 1248.96 774 1251C773.34 1250.67 772.68 1250.34 772 1250C773.98 1247.36 775.96 1244.72 778 1242Z" fill="#31B188"/>
</g>
<defs>
<clipPath id="clip0_1727_4209">
<rect width="1271" height="1820" fill="white"/>
</clipPath>
</defs>
</svg>
