<svg width="1000" height="355" viewBox="0 0 1000 355" fill="none" xmlns="http://www.w3.org/2000/svg">
<g clip-path="url(#clip0_3841_2471)">
<path d="M391.207 59.9154H416.515V69.8354C426.058 58.0974 437.883 57.083 443.268 57.083C462.138 57.083 469.4 68.6234 471.681 73.0763C476.041 66.1994 484.949 57.083 500.512 57.083C514.415 57.083 521.259 63.3538 524.782 67.8066C530.586 75.3027 531.004 82.7855 531.004 92.5079V147.562H505.696V99.7931C505.696 89.4647 503.414 84.8143 501.552 82.5879C498.231 78.5435 493.669 78.1351 491.185 78.1351C484.342 78.1351 479.982 81.1651 477.283 85.8287C473.962 91.0983 473.76 98.1727 473.76 102.836V147.575H448.451V99.8063C448.451 89.4779 446.17 84.8275 444.308 82.6011C440.987 78.5566 436.425 78.1482 433.941 78.1482C427.098 78.1482 422.738 81.1783 420.038 85.8419C416.718 91.1115 416.515 98.1859 416.515 102.85V147.588H391.207V59.9154Z" fill="black"/>
<path d="M574.765 59.9155V109.502C574.765 114.166 575.183 120.437 580.15 124.89C583.255 127.525 588.236 129.343 593.014 129.343C597.792 129.343 602.759 127.525 605.877 124.89C610.858 120.437 611.263 114.166 611.263 109.502V59.9155H636.571V113.56C636.571 121.451 635.532 131.977 625.584 140.488C617.283 147.575 604.015 150.408 593.027 150.408C582.04 150.408 568.758 147.575 560.471 140.488C550.509 131.991 549.483 121.464 549.483 113.56V59.9155H574.792H574.765Z" fill="black"/>
<path d="M701.212 80.7699C695.192 75.3027 689.186 74.8943 686.486 74.8943C680.466 74.8943 676.741 77.7267 676.741 81.9819C676.741 84.2083 677.78 87.6467 684.826 89.8731L690.846 91.6911C697.892 93.9175 708.474 97.3559 713.657 104.246C716.357 107.895 718.219 113.152 718.219 118.816C718.219 126.708 715.52 134.599 708.272 141.08C701.01 147.562 692.304 150.395 681.316 150.395C662.649 150.395 652.067 141.686 646.479 135.824L659.747 120.845C664.728 126.51 672.192 130.963 679.656 130.963C686.702 130.963 692.101 127.524 692.101 121.451C692.101 115.984 687.539 113.758 684.218 112.546L678.414 110.517C671.989 108.29 664.512 105.458 659.126 99.9908C654.982 95.7355 652.283 90.2683 652.283 83.1939C652.283 74.6967 656.426 67.609 661.61 63.3538C668.655 57.8866 677.78 57.083 685.042 57.083C691.683 57.083 702.251 57.8866 713.657 66.397L701.212 80.7699Z" fill="black"/>
<path d="M743.109 8.10205C751.411 8.10205 758.254 14.7813 758.254 22.8833C758.254 30.9853 751.411 37.6645 743.109 37.6645C734.808 37.6645 727.965 30.9853 727.965 22.8833C727.965 14.7813 734.808 8.10205 743.109 8.10205ZM755.757 59.9154V147.562H730.448V59.9154H755.757Z" fill="black"/>
<path d="M802.284 0V91.9019L835.88 59.9154H868.653L826.553 98.3703L871.973 147.562H838.377L804.984 110.108L802.284 112.532V147.549H776.976V0H802.284Z" fill="black"/>
<path d="M459.642 220.796H484.95V304.399C484.95 317.757 483.708 331.721 472.505 342.656C466.283 348.729 455.498 355 437.046 355C419.621 355 409.254 349.941 403.45 344.882C396.404 339.007 391.005 328.691 388.926 318.771H416.3C417.339 322.816 419.621 326.873 422.523 329.297C427.503 333.75 434.347 333.948 437.87 333.948C445.131 333.948 449.896 331.524 453.217 328.481C459.021 323.013 459.642 316.137 459.642 309.049V296.705C450.935 309.655 438.895 311.275 432.052 311.275C420.025 311.275 409.659 307.626 400.94 299.327C394.299 292.845 386.632 281.515 386.632 264.508C386.632 250.741 391.815 237.988 400.535 229.689C408.417 222.206 419.405 217.951 431.445 217.951C448.249 217.951 456.119 226.856 459.655 232.126V220.783L459.642 220.796ZM420.862 245.906C416.718 249.555 412.777 255.418 412.777 264.534C412.777 272.228 415.679 277.892 419.418 281.739C424.817 287.404 431.661 289.433 437.667 289.433C443.674 289.433 450.112 287.206 454.472 283.36C459.655 278.709 462.557 271.622 462.557 264.534C462.557 256.234 458.818 250.57 455.295 246.92C450.315 241.861 444.511 239.833 437.667 239.833C429.582 239.833 423.98 243.074 420.862 245.906Z" fill="black"/>
<path d="M531.477 160.881V308.443H506.169V160.881H531.477Z" fill="black"/>
<path d="M616.028 220.796H641.336V308.443H616.028V297.1C606.903 309.853 594.877 311.276 588.438 311.276C560.849 311.276 542.6 290.223 542.6 264.521C542.6 238.818 560.646 217.964 587.196 217.964C594.04 217.964 607.524 219.176 616.028 232.139V220.796ZM576.209 175.254C584.294 175.254 591.138 181.933 591.138 189.824C591.138 197.716 584.294 204.395 576.209 204.395C568.124 204.395 561.281 197.716 561.281 189.824C561.281 181.933 568.124 175.254 576.209 175.254ZM568.745 264.521C568.745 278.485 579.111 289.42 593.635 289.42C608.159 289.42 618.525 278.485 618.525 264.521C618.525 250.557 608.159 239.82 593.635 239.82C579.111 239.82 568.745 250.543 568.745 264.521ZM619.348 175.254C627.433 175.254 634.277 181.933 634.277 189.824C634.277 197.716 627.433 204.395 619.348 204.395C611.263 204.395 604.42 197.716 604.42 189.824C604.42 181.933 611.263 175.254 619.348 175.254Z" fill="black"/>
<path d="M728.653 160.881H753.961V308.443H728.653V297.1C719.528 309.853 707.502 311.275 701.063 311.275C673.474 311.275 655.225 290.223 655.225 264.521C655.225 238.818 673.271 217.964 699.821 217.964C706.665 217.964 720.149 219.176 728.653 232.139V160.881ZM681.356 264.521C681.356 278.485 691.723 289.42 706.246 289.42C720.77 289.42 731.136 278.485 731.136 264.521C731.136 250.556 720.77 239.82 706.246 239.82C691.723 239.82 681.356 250.543 681.356 264.521Z" fill="black"/>
<path d="M785.074 175.254C793.375 175.254 800.219 181.933 800.219 190.035C800.219 198.137 793.375 204.816 785.074 204.816C776.773 204.816 769.93 198.137 769.93 190.035C769.93 181.933 776.773 175.254 785.074 175.254Z" fill="black"/>
<path d="M797.722 220.796H772.413V354.802H797.722V220.796Z" fill="black"/>
<path d="M901.56 283.952C898.861 290.434 888.697 311.275 857.382 311.275C842.858 311.275 831.871 307.231 822.949 298.931C812.988 289.828 808.844 278.485 808.844 264.718C808.844 247.302 816.106 236.579 822.531 230.308C833.113 220.19 845.544 217.964 856.329 217.964C874.578 217.964 885.161 225.051 891.383 232.337C900.926 243.469 902.168 257.236 902.168 266.747V268.776H834.976C834.976 274.046 836.433 279.71 839.335 283.557C842.035 287.206 847.637 291.857 857.382 291.857C867.127 291.857 874.187 287.404 878.331 280.316L901.56 283.966V283.952ZM878.331 252.98C876.252 241.032 866.304 235.367 856.964 235.367C847.623 235.367 837.878 241.242 835.812 252.98H878.331Z" fill="black"/>
<path d="M913.304 220.796H938.612V232.139C943.377 225.657 951.88 217.964 966.404 217.964C974.287 217.964 985.895 220.19 992.954 228.688C999.177 236.184 1000.01 244.878 1000.01 253.389V308.443H974.705V260.674C974.705 255.813 974.503 248.119 969.941 243.469C965.999 239.424 960.614 239.016 958.117 239.016C951.476 239.016 946.292 241.242 942.567 246.71C938.828 252.374 938.626 258.658 938.626 263.717V308.456H913.317V220.809L913.304 220.796Z" fill="black"/>
<path d="M47.1074 313.37C73.1241 313.37 94.2148 292.785 94.2148 267.393C94.2148 242 73.1241 221.416 47.1074 221.416C21.0907 221.416 0 242 0 267.393C0 292.785 21.0907 313.37 47.1074 313.37Z" fill="black"/>
<path d="M186.958 312.711C170.504 312.711 119.415 306.875 119.415 228.081V100.425C119.415 81.6392 120.13 57.3199 95.3617 57.3199C72.3074 57.3199 72.4964 83.668 72.4964 100.425V202.708H21.0967V100.425C21.0967 20.7621 66.0849 7.14014 95.3752 7.14014C126.38 7.14014 170.842 20.7621 170.842 100.425V228.081C170.842 239.912 169.478 262.821 186.971 262.531C202.723 262.281 201.698 239.912 201.698 228.081V100.425C201.698 24.8197 246.969 7.14014 277.798 7.14014C308.627 7.14014 352.644 24.8197 352.644 100.425L352.981 308.759L301.568 308.838L301.231 98.8576C301.231 79.6104 301.028 57.3199 277.812 57.3199C254.596 57.3199 253.718 79.6104 253.718 98.8576V228.081C253.718 308.904 205.76 312.711 186.971 312.711H186.958Z" fill="black"/>
</g>
<defs>
<clipPath id="clip0_3841_2471">
<rect width="1000" height="355" fill="white"/>
</clipPath>
</defs>
</svg>
